<svg width="92" height="22" viewBox="0 0 92 22" fill="none" xmlns="http://www.w3.org/2000/svg">
<path d="M88.2158 17.2398C88.4647 16.854 88.6078 16.4309 88.6451 15.9704C88.6824 15.51 88.7011 15.0558 88.7011 14.6078C88.3402 15.0682 87.8984 15.3918 87.3758 15.5784C86.8531 15.7651 86.2869 15.8584 85.6771 15.8584C84.9678 15.8584 84.3518 15.7527 83.8291 15.5411C83.3189 15.3295 82.9144 15.006 82.6158 14.5704C82.3171 14.1722 82.1118 13.7055 81.9998 13.1704C81.8878 12.6229 81.8318 12.0318 81.8318 11.3971V5.87177H84.4638V11.0798C84.4638 11.4158 84.4887 11.7455 84.5384 12.0691C84.6007 12.3802 84.7251 12.6415 84.9118 12.8531C85.2104 13.3011 85.7518 13.5251 86.5358 13.5251C86.9091 13.5251 87.2575 13.4504 87.5811 13.3011C87.9047 13.1393 88.1598 12.8904 88.3464 12.5544C88.5082 12.2682 88.6078 11.9695 88.6451 11.6584C88.6824 11.3349 88.7011 10.9864 88.7011 10.6131V5.87177H91.3518V13.9544C91.3518 14.4024 91.3455 14.8629 91.3331 15.3358C91.3331 15.7962 91.2958 16.2504 91.2211 16.6984C91.1589 17.1464 91.0407 17.582 90.8664 18.0051C90.6922 18.4282 90.4495 18.8202 90.1384 19.1811C89.7029 19.6789 89.1304 20.0771 88.4211 20.3758C87.7242 20.6744 86.8842 20.8175 85.9011 20.8051C85.1793 20.8175 84.4638 20.718 83.7544 20.5064C83.0451 20.3073 82.3918 20.0149 81.7944 19.6291L82.6344 17.3891C82.958 17.6255 83.3873 17.8433 83.9224 18.0424C84.47 18.2415 85.1109 18.3411 85.8451 18.3411C86.4424 18.3411 86.9278 18.2415 87.3011 18.0424C87.6869 17.8558 87.9918 17.5882 88.2158 17.2398Z" fill="#858892"/>
<path d="M76.0755 13.5251C76.5733 13.5251 76.9653 13.4069 77.2515 13.1704C77.5501 12.934 77.7306 12.6664 77.7928 12.3678H80.5555C80.4684 13.0024 80.2879 13.5376 80.0141 13.9731C79.7404 14.4087 79.3981 14.7696 78.9875 15.0558C78.5893 15.342 78.135 15.5473 77.6248 15.6718C77.1146 15.7962 76.5857 15.8584 76.0381 15.8584C75.2168 15.8584 74.5013 15.7464 73.8915 15.5224C73.2941 15.286 72.7964 14.95 72.3981 14.5144C71.9999 14.0664 71.695 13.5313 71.4835 12.9091C71.2844 12.2744 71.1848 11.5651 71.1848 10.7811C71.1848 10.022 71.2968 9.32511 71.5208 8.69044C71.7448 8.05578 72.0621 7.51444 72.4728 7.06644C72.8959 6.61844 73.4124 6.27622 74.0221 6.03978C74.6319 5.79089 75.3288 5.66644 76.1128 5.66644C76.6853 5.66644 77.2204 5.73489 77.7181 5.87178C78.2284 6.00867 78.6764 6.22022 79.0621 6.50644C79.4604 6.79267 79.7839 7.15978 80.0328 7.60778C80.2941 8.04333 80.4684 8.566 80.5555 9.17578H77.7928C77.7306 8.87711 77.5439 8.60955 77.2328 8.37311C76.9341 8.13667 76.5421 8.01844 76.0568 8.01844C75.6461 8.01844 75.2915 8.09311 74.9928 8.24244C74.6941 8.39178 74.4577 8.59711 74.2835 8.85844C74.1093 9.11978 73.9848 9.41844 73.9101 9.75444C73.8355 10.0904 73.7981 10.4451 73.7981 10.8184C73.7981 11.2167 73.8417 11.5838 73.9288 11.9198C74.0159 12.2433 74.1466 12.5296 74.3208 12.7784C74.495 13.0149 74.7253 13.2016 75.0115 13.3384C75.3101 13.4629 75.6648 13.5251 76.0755 13.5251Z" fill="#858892"/>
<path d="M63.1709 7.12251C63.9674 6.16429 64.9505 5.67895 66.1203 5.66651C66.7549 5.65407 67.3149 5.75984 67.8003 5.98384C68.2856 6.1954 68.6776 6.48784 68.9763 6.86118C69.3372 7.29673 69.586 7.80695 69.7229 8.39184C69.8598 8.96429 69.9283 9.60518 69.9283 10.3145V15.7092H67.2776V10.5198C67.2776 10.1714 67.2403 9.84162 67.1656 9.53051C67.1034 9.20695 66.9914 8.93318 66.8296 8.70918C66.6678 8.47273 66.45 8.29851 66.1763 8.18651C65.9149 8.07451 65.6163 8.01851 65.2803 8.01851C64.8572 8.03095 64.4963 8.12429 64.1976 8.29851C63.9114 8.47273 63.6936 8.69673 63.5443 8.97051C63.3949 9.23184 63.2892 9.53051 63.2269 9.86651C63.1772 10.1901 63.1523 10.5198 63.1523 10.8558V15.7092H60.5203V5.87184H63.0403L63.1709 7.12251Z" fill="#858892"/>
<path d="M54.6003 13.7118C54.9736 13.7118 55.2909 13.6558 55.5523 13.5438C55.8261 13.4193 56.0501 13.2202 56.2243 12.9464H58.9869C58.8501 13.4567 58.6385 13.8984 58.3523 14.2718C58.0785 14.6451 57.7425 14.95 57.3443 15.1864C56.9585 15.4229 56.5292 15.5971 56.0563 15.7091C55.5834 15.8087 55.0856 15.8584 54.5629 15.8584C52.97 15.8584 51.7629 15.4104 50.9416 14.5144C50.1327 13.6184 49.7283 12.3616 49.7283 10.7438C49.7283 10.0096 49.8341 9.33133 50.0456 8.70911C50.2696 8.08689 50.5807 7.55178 50.9789 7.10378C51.3772 6.64333 51.8687 6.28867 52.4536 6.03978C53.0509 5.79089 53.7292 5.66644 54.4883 5.66644C55.3718 5.66644 56.1372 5.822 56.7843 6.13311C57.4314 6.44422 57.9416 6.87355 58.3149 7.42111C58.7007 7.95622 58.9558 8.58467 59.0803 9.30644C59.2172 10.0282 59.2172 10.7998 59.0803 11.6211H52.3603C52.4101 12.206 52.6154 12.7038 52.9763 13.1144C53.3372 13.5127 53.8785 13.7118 54.6003 13.7118ZM56.6349 9.81044C56.6349 9.49933 56.5789 9.22555 56.4669 8.98911C56.3549 8.74022 56.2056 8.54111 56.0189 8.39178C55.8323 8.23 55.6083 8.11178 55.3469 8.03711C55.0981 7.96244 54.8367 7.92511 54.5629 7.92511C53.9034 7.93755 53.3869 8.118 53.0136 8.46644C52.6527 8.80244 52.4412 9.25044 52.3789 9.81044H56.6349Z" fill="#858892"/>
<path d="M45.7587 14.7011C45.3854 15.1242 44.9374 15.4229 44.4147 15.5971C43.892 15.7714 43.3258 15.8585 42.716 15.8585C42.1063 15.8585 41.5089 15.7651 40.924 15.5785C40.3516 15.3793 39.8538 15.062 39.4307 14.6265C38.9578 14.1287 38.628 13.5562 38.4414 12.9091C38.2547 12.262 38.1614 11.5962 38.1614 10.9118C38.1614 9.29402 38.6094 7.99979 39.5054 7.02913C39.8912 6.60602 40.3889 6.27624 40.9987 6.03979C41.6209 5.80335 42.2867 5.69135 42.996 5.70379C43.4565 5.6789 43.9543 5.75979 44.4894 5.94646C45.0245 6.13313 45.4849 6.44424 45.8707 6.87979L46.1507 5.87179H48.428V15.0931C48.428 15.4914 48.4032 15.8834 48.3534 16.2691C48.316 16.6674 48.2476 17.0469 48.148 17.4078C48.0485 17.7811 47.8992 18.1358 47.7 18.4718C47.476 18.8825 47.2023 19.2309 46.8787 19.5171C46.5676 19.8034 46.2192 20.0398 45.8334 20.2265C45.4476 20.4256 45.0369 20.5687 44.6014 20.6558C44.1658 20.7429 43.724 20.7865 43.276 20.7865C42.7036 20.7865 42.156 20.718 41.6334 20.5811C41.1107 20.4567 40.6316 20.2451 40.196 19.9465C39.7729 19.6602 39.4183 19.2931 39.132 18.8451C38.8583 18.3971 38.6778 17.862 38.5907 17.2398H41.3907C41.4405 17.5385 41.6396 17.806 41.988 18.0425C42.3365 18.2789 42.7596 18.3971 43.2574 18.3971C43.7925 18.3971 44.228 18.2913 44.564 18.0798C44.9125 17.8682 45.1738 17.5882 45.348 17.2398C45.5223 16.8913 45.6343 16.4931 45.684 16.0451C45.7338 15.5971 45.7587 15.1491 45.7587 14.7011ZM43.3134 13.5251C43.724 13.5251 44.0849 13.4505 44.396 13.3011C44.7196 13.1518 44.9809 12.9527 45.18 12.7038C45.3792 12.4425 45.5285 12.1438 45.628 11.8078C45.7276 11.4593 45.7774 11.0922 45.7774 10.7065C45.7774 9.9349 45.5596 9.30024 45.124 8.80246C44.7009 8.29224 44.0912 8.03091 43.2947 8.01846C42.884 8.01846 42.5169 8.09313 42.1934 8.24246C41.8823 8.39179 41.6209 8.59091 41.4094 8.83979C41.2103 9.08868 41.0609 9.38113 40.9614 9.71713C40.8618 10.0531 40.812 10.414 40.812 10.7998C40.812 11.2105 40.8618 11.5838 40.9614 11.9198C41.0734 12.2433 41.2352 12.5296 41.4467 12.7785C41.6583 13.0149 41.9196 13.2016 42.2307 13.3385C42.5418 13.4629 42.9027 13.5251 43.3134 13.5251Z" fill="#858892"/>
<path d="M34.4049 14.4958C34.0316 14.9936 33.5774 15.3482 33.0422 15.5598C32.5071 15.7713 31.8849 15.8709 31.1756 15.8584C30.2671 15.8336 29.508 15.5784 28.8982 15.0931C28.5747 14.8193 28.3196 14.4958 28.1329 14.1224C27.9587 13.7367 27.8716 13.2824 27.8716 12.7598C27.884 12.2247 28.0022 11.7518 28.2262 11.3411C28.4627 10.918 28.8174 10.5696 29.2902 10.2958C29.6885 10.0842 30.1365 9.93489 30.6342 9.84778C31.1445 9.76067 31.6982 9.71711 32.2956 9.71711H34.3116C34.3489 9.10733 34.2058 8.65311 33.8822 8.35444C33.5711 8.04333 33.1294 7.88155 32.5569 7.86911C32.3702 7.86911 32.1774 7.88155 31.9782 7.90644C31.7791 7.93133 31.5925 7.98111 31.4182 8.05578C31.2565 8.13044 31.1134 8.23622 30.9889 8.37311C30.8769 8.49755 30.8022 8.65311 30.7649 8.83978H28.0582C28.1205 8.24244 28.2822 7.74467 28.5436 7.34644C28.8174 6.93578 29.1596 6.606 29.5702 6.35711C29.9809 6.10822 30.4351 5.934 30.9329 5.83444C31.4431 5.72244 31.9658 5.66644 32.5009 5.66644C32.7996 5.66644 33.1045 5.68511 33.4156 5.72244C33.7267 5.74733 34.0316 5.80955 34.3302 5.90911C34.6289 5.99622 34.9089 6.12067 35.1702 6.28244C35.444 6.43178 35.6991 6.63089 35.9356 6.87978C36.3587 7.36511 36.62 7.92511 36.7196 8.55978C36.8316 9.182 36.8814 9.79178 36.8689 10.3891V15.7091H34.4609L34.4049 14.4958ZM34.3116 11.3598H32.3889C32.2022 11.3598 31.9907 11.3784 31.7542 11.4158C31.5178 11.4531 31.3125 11.5216 31.1382 11.6211C30.964 11.7207 30.8147 11.8513 30.6902 12.0131C30.5782 12.1749 30.5222 12.374 30.5222 12.6104C30.5222 12.8096 30.5596 12.9838 30.6342 13.1331C30.7214 13.2824 30.8271 13.4069 30.9516 13.5064C31.0885 13.606 31.2502 13.6869 31.4369 13.7491C31.6236 13.7989 31.8102 13.8238 31.9969 13.8238C32.3578 13.8362 32.6938 13.774 33.0049 13.6371C33.3285 13.5002 33.6085 13.3073 33.8449 13.0584C33.9942 12.8593 34.1062 12.6353 34.1809 12.3864C34.268 12.1251 34.3116 11.7829 34.3116 11.3598Z" fill="#858892"/>
<path fill-rule="evenodd" clip-rule="evenodd" d="M20.7238 11.5501C20.6183 13.393 20.0225 15.1783 18.993 16.719C17.8535 18.4244 16.2339 19.7536 14.3389 20.5385C12.444 21.3234 10.3589 21.5288 8.34722 21.1287C6.33556 20.7285 4.48774 19.7408 3.03742 18.2905C1.58709 16.8402 0.599411 14.9924 0.199268 12.9807C-0.200875 10.9691 0.00449332 8.88392 0.789402 6.98899C1.57431 5.09405 2.90351 3.47442 4.60891 2.33491C6.14965 1.30542 7.93494 0.709584 9.7778 0.604126V5.80634C8.962 5.90018 8.17713 6.18687 7.48964 6.64623C6.63694 7.21599 5.97234 8.0258 5.57989 8.97327C5.18743 9.92074 5.08475 10.9633 5.28482 11.9691C5.48489 12.975 5.97873 13.8989 6.7039 14.624C7.42906 15.3492 8.35297 15.843 9.3588 16.0431C10.3646 16.2432 11.4072 16.1405 12.3547 15.748C13.3021 15.3556 14.1119 14.691 14.6817 13.8383C15.1411 13.1508 15.4277 12.3659 15.5216 11.5501H20.7238Z" fill="#858892"/>
<path fill-rule="evenodd" clip-rule="evenodd" d="M15.5528 0.587219H11.3108V5.77239H15.5528V10.0146H20.738V5.77239H20.7384V0.587219H19.7894H15.5528Z" fill="#858892"/>
</svg>
