<svg width="129" height="28" viewBox="0 0 129 28" fill="none" xmlns="http://www.w3.org/2000/svg">
<path d="M120.502 10.1908H122.813L122.903 11.4003C123.204 10.943 123.577 10.594 124.022 10.3533C124.479 10.1005 124.985 9.97418 125.538 9.97418C127.789 9.97418 128.908 11.3522 128.896 14.1082V14.5956H128.914V19.217H126.477V14.5956H126.459C126.459 13.7291 126.309 13.1273 126.008 12.7904C125.719 12.4414 125.298 12.2668 124.744 12.2668C124.154 12.2668 123.703 12.4594 123.39 12.8445C123.089 13.2176 122.939 13.7592 122.939 14.4692V19.217H120.502V10.1908Z" fill="#858892"/>
<path d="M114.255 19.4337C113.34 19.4337 112.522 19.2351 111.8 18.8379C111.078 18.4287 110.512 17.8691 110.103 17.1591C109.706 16.437 109.507 15.6186 109.507 14.7039C109.507 13.7893 109.706 12.9769 110.103 12.2668C110.512 11.5447 111.072 10.9851 111.782 10.588C112.492 10.1788 113.304 9.97418 114.219 9.97418C115.134 9.97418 115.946 10.1788 116.656 10.588C117.378 10.9851 117.938 11.5447 118.335 12.2668C118.744 12.9769 118.949 13.7893 118.949 14.7039C118.949 15.6186 118.75 16.437 118.353 17.1591C117.956 17.8691 117.396 18.4287 116.674 18.8379C115.964 19.2351 115.158 19.4337 114.255 19.4337ZM112.016 14.7039C112.016 15.4381 112.221 16.0398 112.63 16.5092C113.052 16.9665 113.593 17.1952 114.255 17.1952C114.905 17.1952 115.434 16.9665 115.844 16.5092C116.253 16.0398 116.457 15.4381 116.457 14.7039C116.457 13.9698 116.247 13.3741 115.826 12.9167C115.416 12.4474 114.881 12.2127 114.219 12.2127C113.581 12.2127 113.052 12.4474 112.63 12.9167C112.221 13.3741 112.016 13.9698 112.016 14.7039Z" fill="#858892"/>
<path d="M105.379 10.1909H107.816V19.2171H105.379V10.1909ZM106.607 8.76474C106.222 8.76474 105.891 8.62634 105.614 8.34954C105.337 8.07273 105.199 7.74779 105.199 7.37471C105.199 6.98959 105.337 6.65862 105.614 6.38182C105.903 6.10502 106.234 5.96661 106.607 5.96661C106.98 5.96661 107.305 6.10502 107.582 6.38182C107.858 6.65862 107.997 6.98959 107.997 7.37471C107.997 7.74779 107.858 8.07273 107.582 8.34954C107.317 8.62634 106.992 8.76474 106.607 8.76474Z" fill="#858892"/>
<path d="M101.691 19.4337C100.692 19.4337 99.9278 19.187 99.3983 18.6936C98.8808 18.2002 98.6221 17.4901 98.6221 16.5634V12.2489H97.1779V10.1909H98.6221V7.37469H101.059V10.1909H103.298V12.2489H101.059V16.0218C101.059 16.419 101.137 16.7138 101.294 16.9064C101.462 17.0869 101.715 17.1772 102.052 17.1772C102.293 17.1772 102.564 17.0689 102.864 16.8522L103.731 18.6755C103.43 18.9042 103.099 19.0847 102.738 19.2171C102.377 19.3615 102.028 19.4337 101.691 19.4337Z" fill="#858892"/>
<path d="M93.7086 18.1881C93.2031 19.0185 92.3727 19.4337 91.2173 19.4337C90.1342 19.4337 89.2917 19.193 88.69 18.7116C88.1003 18.2302 87.8054 17.5502 87.8054 16.6716C87.8054 15.7209 88.1243 14.9988 88.7622 14.5053C89.4001 14.0119 90.3027 13.7652 91.4701 13.7652H93.6183C93.4498 12.6459 92.9022 12.0863 91.9755 12.0863C91.1812 12.0863 90.5795 12.4233 90.1703 13.0973L88.0221 12.3571C88.3109 11.6831 88.7803 11.1175 89.4301 10.6602C90.0921 10.2028 90.9405 9.97418 91.9755 9.97418C93.3235 9.97418 94.3464 10.3533 95.0445 11.1115C95.7425 11.8577 96.0795 12.8927 96.0554 14.2165L96.0193 19.217H93.7447L93.7086 18.1881ZM90.2967 16.5994C90.2967 16.8522 90.417 17.0568 90.6577 17.2132C90.8984 17.3576 91.2294 17.4298 91.6506 17.4298C92.0237 17.4298 92.3607 17.3396 92.6615 17.1591C92.9744 16.9785 93.2212 16.7439 93.4017 16.455C93.5822 16.1662 93.6725 15.8653 93.6725 15.5524H92.3366C91.6025 15.5524 91.0789 15.6427 90.766 15.8232C90.4531 15.9917 90.2967 16.2504 90.2967 16.5994Z" fill="#858892"/>
<path d="M82.8068 19.4337C81.8681 19.4337 81.0316 19.2351 80.2975 18.8379C79.5634 18.4287 78.9857 17.8691 78.5645 17.1591C78.1553 16.437 77.9507 15.6186 77.9507 14.7039C77.9507 13.7893 78.1553 12.9769 78.5645 12.2668C78.9737 11.5447 79.5453 10.9851 80.2795 10.588C81.0136 10.1788 81.844 9.97418 82.7707 9.97418C83.6974 9.97418 84.5278 10.2028 85.2619 10.6602C86.0081 11.1175 86.5497 11.7614 86.8867 12.5918L84.594 13.4041C84.4255 13.0551 84.1667 12.7783 83.8177 12.5737C83.4687 12.3691 83.0836 12.2668 82.6624 12.2668C82.0125 12.2668 81.4829 12.4955 81.0738 12.9528C80.6646 13.3981 80.46 13.9818 80.46 14.7039C80.46 15.414 80.6646 15.9977 81.0738 16.455C81.495 16.9123 82.0366 17.141 82.6985 17.141C83.1197 17.141 83.5048 17.0327 83.8538 16.8161C84.2029 16.5874 84.4616 16.2865 84.6301 15.9134L86.9408 16.7258C86.5918 17.5803 86.0502 18.2482 85.3161 18.7296C84.582 19.199 83.7455 19.4337 82.8068 19.4337Z" fill="#858892"/>
<path d="M73.8226 10.1909H76.2597V19.2171H73.8226V10.1909ZM75.0502 8.76474C74.6651 8.76474 74.3341 8.62634 74.0573 8.34954C73.7805 8.07273 73.6421 7.74779 73.6421 7.37471C73.6421 6.98959 73.7805 6.65862 74.0573 6.38182C74.3461 6.10502 74.6771 5.96661 75.0502 5.96661C75.4233 5.96661 75.7482 6.10502 76.025 6.38182C76.3018 6.65862 76.4402 6.98959 76.4402 7.37471C76.4402 7.74779 76.3018 8.07273 76.025 8.34954C75.7602 8.62634 75.4353 8.76474 75.0502 8.76474Z" fill="#858892"/>
<path d="M69.2003 6.21936H71.6374V19.2171H69.2003V6.21936Z" fill="#858892"/>
<path d="M58.4485 10.1908H60.7592L60.8495 11.4364C61.1503 10.9671 61.5294 10.606 61.9868 10.3533C62.4561 10.1005 62.9917 9.97418 63.5934 9.97418C64.4118 9.97418 65.1279 10.1667 65.7417 10.5519C66.3675 10.937 66.8429 11.4846 67.1678 12.1946C67.5048 12.9047 67.6733 13.7411 67.6733 14.7039C67.6733 15.6547 67.5048 16.4911 67.1678 17.2132C66.8429 17.9233 66.3675 18.4709 65.7417 18.856C65.1279 19.2411 64.4118 19.4337 63.5934 19.4337C63.0037 19.4337 62.4802 19.3133 62.0229 19.0726C61.5655 18.8199 61.1864 18.4649 60.8856 18.0075V22.8275H58.4485V10.1908ZM60.8856 14.7039C60.8856 15.4381 61.0781 16.0398 61.4632 16.5092C61.8604 16.9665 62.3659 17.1952 62.9797 17.1952C63.6055 17.1952 64.123 16.9605 64.5322 16.4911C64.9414 16.0218 65.1459 15.426 65.1459 14.7039C65.1459 13.9818 64.9414 13.3921 64.5322 12.9348C64.135 12.4654 63.6235 12.2307 62.9977 12.2307C62.3719 12.2307 61.8604 12.4594 61.4632 12.9167C61.0781 13.3741 60.8856 13.9698 60.8856 14.7039Z" fill="#858892"/>
<path d="M47.6064 10.1908H49.9172L50.0074 11.4364C50.3083 10.9671 50.6874 10.606 51.1447 10.3533C51.6141 10.1005 52.1496 9.97418 52.7514 9.97418C53.5698 9.97418 54.2859 10.1667 54.8996 10.5519C55.5255 10.937 56.0008 11.4846 56.3258 12.1946C56.6628 12.9047 56.8313 13.7411 56.8313 14.7039C56.8313 15.6547 56.6628 16.4911 56.3258 17.2132C56.0008 17.9233 55.5255 18.4709 54.8996 18.856C54.2859 19.2411 53.5698 19.4337 52.7514 19.4337C52.1617 19.4337 51.6382 19.3133 51.1808 19.0726C50.7235 18.8199 50.3444 18.4649 50.0435 18.0075V22.8275H47.6064V10.1908ZM50.0435 14.7039C50.0435 15.4381 50.2361 16.0398 50.6212 16.5092C51.0184 16.9665 51.5238 17.1952 52.1376 17.1952C52.7634 17.1952 53.2809 16.9605 53.6901 16.4911C54.0993 16.0218 54.3039 15.426 54.3039 14.7039C54.3039 13.9818 54.0993 13.3921 53.6901 12.9348C53.293 12.4654 52.7815 12.2307 52.1557 12.2307C51.5298 12.2307 51.0184 12.4594 50.6212 12.9167C50.2361 13.3741 50.0435 13.9698 50.0435 14.7039Z" fill="#858892"/>
<path d="M43.2887 18.1881C42.7832 19.0185 41.9528 19.4337 40.7974 19.4337C39.7143 19.4337 38.8718 19.193 38.2701 18.7116C37.6804 18.2302 37.3855 17.5502 37.3855 16.6716C37.3855 15.7209 37.7044 14.9988 38.3423 14.5053C38.9801 14.0119 39.8828 13.7652 41.0501 13.7652H43.1984C43.0299 12.6459 42.4823 12.0863 41.5556 12.0863C40.7613 12.0863 40.1596 12.4233 39.7504 13.0973L37.6021 12.3571C37.891 11.6831 38.3603 11.1175 39.0102 10.6602C39.6721 10.2028 40.5206 9.97418 41.5556 9.97418C42.9035 9.97418 43.9265 10.3533 44.6245 11.1115C45.3226 11.8577 45.6595 12.8927 45.6355 14.2165L45.5994 19.217H43.3248L43.2887 18.1881ZM39.8767 16.5994C39.8767 16.8522 39.9971 17.0568 40.2378 17.2132C40.4785 17.3576 40.8094 17.4298 41.2307 17.4298C41.6038 17.4298 41.9407 17.3396 42.2416 17.1591C42.5545 16.9785 42.8012 16.7439 42.9818 16.455C43.1623 16.1662 43.2525 15.8653 43.2525 15.5524H41.9167C41.1825 15.5524 40.659 15.6427 40.3461 15.8232C40.0332 15.9917 39.8767 16.2504 39.8767 16.5994Z" fill="#858892"/>
<path fill-rule="evenodd" clip-rule="evenodd" d="M12.4075 22.6231L6.57614 22.6231C3.14285 22.6231 0.359619 19.8399 0.359619 16.4066C0.359619 13.3787 2.66727 10.8899 5.61976 10.6028C5.82792 7.57131 8.35298 5.17676 11.4373 5.17676H11.6299C13.289 5.17676 14.7915 5.84752 15.881 6.93267C17.3416 5.83037 19.1598 5.17676 21.1307 5.17676H21.5687C26.1445 5.17676 29.8539 8.88616 29.8539 13.4619C29.8539 18.5215 25.7523 22.6231 20.6927 22.6231L12.4076 22.6231L12.4075 22.6231Z" fill="#858892"/>
</svg>
