<svg width="80" height="80" viewBox="0 0 80 80" fill="none" xmlns="http://www.w3.org/2000/svg">
<g clip-path="url(#clip0_2118_11664)">
<rect width="80" height="80" fill="white"/>
<g filter="url(#filter0_d_2118_11664)">
<rect width="80" height="80" fill="white"/>
<path fill-rule="evenodd" clip-rule="evenodd" d="M56.3104 30.0653C59.8316 30.0653 62.6862 27.2108 62.6862 23.6895C62.6862 20.1683 59.8316 17.3137 56.3104 17.3137C52.7891 17.3137 49.9346 20.1683 49.9346 23.6895C49.9346 27.2108 52.7891 30.0653 56.3104 30.0653Z" fill="#8055FA"/>
<path fill-rule="evenodd" clip-rule="evenodd" d="M56.3101 46.0789C59.8314 46.0789 62.6859 43.2244 62.6859 39.7032C62.6859 36.1821 59.8314 33.3276 56.3101 33.3276C52.7889 33.3276 49.9343 36.1821 49.9343 39.7032C49.9343 43.2244 52.7889 46.0789 56.3101 46.0789Z" fill="#7550FB"/>
<path fill-rule="evenodd" clip-rule="evenodd" d="M56.3101 62.6864C59.8314 62.6864 62.6859 59.8319 62.6859 56.3106C62.6859 52.7894 59.8314 49.9348 56.3101 49.9348C52.7889 49.9348 49.9343 52.7894 49.9343 56.3106C49.9343 59.8319 52.7889 62.6864 56.3101 62.6864Z" fill="#6A4AFC"/>
<path fill-rule="evenodd" clip-rule="evenodd" d="M39.7037 46.0789C43.2249 46.0789 46.0793 43.2244 46.0793 39.7032C46.0793 36.1821 43.2249 33.3276 39.7037 33.3276C36.1826 33.3276 33.3281 36.1821 33.3281 39.7032C33.3281 43.2244 36.1826 46.0789 39.7037 46.0789Z" fill="#6045FD"/>
<path fill-rule="evenodd" clip-rule="evenodd" d="M39.7035 62.6864C43.2246 62.6864 46.0791 59.8319 46.0791 56.3106C46.0791 52.7894 43.2246 49.9348 39.7035 49.9348C36.1823 49.9348 33.3279 52.7894 33.3279 56.3106C33.3279 59.8319 36.1823 62.6864 39.7035 62.6864Z" fill="#553FFE"/>
<path fill-rule="evenodd" clip-rule="evenodd" d="M23.6895 62.6864C27.2108 62.6864 30.0653 59.8319 30.0653 56.3106C30.0653 52.7894 27.2108 49.9348 23.6895 49.9348C20.1683 49.9348 17.3137 52.7894 17.3137 56.3106C17.3137 59.8319 20.1683 62.6864 23.6895 62.6864Z" fill="#4A3AFF"/>
</g>
</g>
<defs>
<filter id="filter0_d_2118_11664" x="-28" y="-20" width="136" height="136" filterUnits="userSpaceOnUse" color-interpolation-filters="sRGB">
<feFlood flood-opacity="0" result="BackgroundImageFix"/>
<feColorMatrix in="SourceAlpha" type="matrix" values="0 0 0 0 0 0 0 0 0 0 0 0 0 0 0 0 0 0 127 0" result="hardAlpha"/>
<feOffset dy="8"/>
<feGaussianBlur stdDeviation="14"/>
<feComposite in2="hardAlpha" operator="out"/>
<feColorMatrix type="matrix" values="0 0 0 0 0.078875 0 0 0 0 0.0770833 0 0 0 0 0.166667 0 0 0 0.1 0"/>
<feBlend mode="normal" in2="BackgroundImageFix" result="effect1_dropShadow_2118_11664"/>
<feBlend mode="normal" in="SourceGraphic" in2="effect1_dropShadow_2118_11664" result="shape"/>
</filter>
<clipPath id="clip0_2118_11664">
<rect width="80" height="80" fill="white"/>
</clipPath>
</defs>
</svg>
