<svg width="53" height="53" viewBox="0 0 53 53" fill="none" xmlns="http://www.w3.org/2000/svg">
<g clip-path="url(#clip0_4323_25734)">
<path fill-rule="evenodd" clip-rule="evenodd" d="M44.8231 15.5845C48.8037 15.5845 52.0306 12.3577 52.0306 8.37711C52.0306 4.39655 48.8037 1.16968 44.8231 1.16968C40.8426 1.16968 37.6157 4.39655 37.6157 8.37711C37.6157 12.3577 40.8426 15.5845 44.8231 15.5845Z" fill="#8055FA"/>
<path fill-rule="evenodd" clip-rule="evenodd" d="M44.8228 33.6869C48.8033 33.6869 52.0302 30.4601 52.0302 26.4797C52.0302 22.4992 48.8033 19.2725 44.8228 19.2725C40.8422 19.2725 37.6154 22.4992 37.6154 26.4797C37.6154 30.4601 40.8422 33.6869 44.8228 33.6869Z" fill="#7550FB"/>
<path fill-rule="evenodd" clip-rule="evenodd" d="M44.8228 52.4605C48.8033 52.4605 52.0302 49.2336 52.0302 45.2531C52.0302 41.2725 48.8033 38.0457 44.8228 38.0457C40.8422 38.0457 37.6154 41.2725 37.6154 45.2531C37.6154 49.2336 40.8422 52.4605 44.8228 52.4605Z" fill="#6A4AFC"/>
<path fill-rule="evenodd" clip-rule="evenodd" d="M26.0504 33.6869C30.0308 33.6869 33.2576 30.4601 33.2576 26.4797C33.2576 22.4992 30.0308 19.2725 26.0504 19.2725C22.07 19.2725 18.8432 22.4992 18.8432 26.4797C18.8432 30.4601 22.07 33.6869 26.0504 33.6869Z" fill="#6045FD"/>
<path fill-rule="evenodd" clip-rule="evenodd" d="M26.0501 52.4605C30.0306 52.4605 33.2573 49.2336 33.2573 45.2531C33.2573 41.2725 30.0306 38.0457 26.0501 38.0457C22.0697 38.0457 18.8429 41.2725 18.8429 45.2531C18.8429 49.2336 22.0697 52.4605 26.0501 52.4605Z" fill="#553FFE"/>
<path fill-rule="evenodd" clip-rule="evenodd" d="M7.94732 52.4605C11.9279 52.4605 15.1547 49.2336 15.1547 45.2531C15.1547 41.2725 11.9279 38.0457 7.94732 38.0457C3.96677 38.0457 0.739891 41.2725 0.739891 45.2531C0.739891 49.2336 3.96677 52.4605 7.94732 52.4605Z" fill="#4A3AFF"/>
</g>
<defs>
<clipPath id="clip0_4323_25734">
<rect width="52" height="52" fill="white" transform="translate(0.6745 0.540527)"/>
</clipPath>
</defs>
</svg>
