<svg width="110" height="24" viewBox="0 0 110 24" fill="none" xmlns="http://www.w3.org/2000/svg">
<path d="M108.857 11.4624L106.272 11.6215C106.228 11.4005 106.133 11.2016 105.987 11.0249C105.841 10.8437 105.649 10.7001 105.41 10.594C105.176 10.4835 104.895 10.4283 104.568 10.4283C104.131 10.4283 103.762 10.5211 103.461 10.7067C103.161 10.8879 103.011 11.1309 103.011 11.4359C103.011 11.6789 103.108 11.8844 103.302 12.0523C103.497 12.2203 103.83 12.3551 104.303 12.4567L106.146 12.8279C107.136 13.0312 107.874 13.3582 108.36 13.809C108.846 14.2597 109.089 14.8519 109.089 15.5855C109.089 16.2528 108.893 16.8383 108.499 17.3421C108.11 17.8459 107.576 18.2392 106.895 18.522C106.219 18.8004 105.439 18.9396 104.555 18.9396C103.207 18.9396 102.133 18.659 101.334 18.0978C100.538 17.5321 100.072 16.7632 99.9349 15.791L102.712 15.6451C102.796 16.0561 103 16.3699 103.322 16.5864C103.645 16.7986 104.058 16.9046 104.562 16.9046C105.057 16.9046 105.455 16.8096 105.755 16.6196C106.06 16.4251 106.215 16.1754 106.219 15.8705C106.215 15.6142 106.106 15.4043 105.894 15.2408C105.682 15.0729 105.355 14.9447 104.913 14.8563L103.15 14.505C102.156 14.3061 101.415 13.9614 100.929 13.4709C100.448 12.9804 100.207 12.3551 100.207 11.595C100.207 10.9409 100.383 10.3775 100.737 9.90461C101.095 9.43176 101.597 9.06717 102.242 8.81086C102.891 8.55455 103.651 8.42639 104.522 8.42639C105.808 8.42639 106.82 8.69817 107.558 9.24173C108.3 9.78529 108.734 10.5255 108.857 11.4624Z" fill="#858892"/>
<path d="M98.3755 11.4624L95.7902 11.6215C95.7461 11.4005 95.651 11.2016 95.5052 11.0249C95.3594 10.8437 95.1671 10.7001 94.9285 10.594C94.6943 10.4835 94.4137 10.4283 94.0866 10.4283C93.6491 10.4283 93.2801 10.5211 92.9796 10.7067C92.6791 10.8879 92.5289 11.1309 92.5289 11.4359C92.5289 11.6789 92.6261 11.8844 92.8205 12.0523C93.015 12.2203 93.3486 12.3551 93.8215 12.4567L95.6643 12.8279C96.6542 13.0312 97.3922 13.3582 97.8783 13.809C98.3644 14.2597 98.6075 14.8519 98.6075 15.5855C98.6075 16.2528 98.4108 16.8383 98.0175 17.3421C97.6286 17.8459 97.0939 18.2392 96.4134 18.522C95.7372 18.8004 94.9572 18.9396 94.0734 18.9396C92.7255 18.9396 91.6517 18.659 90.8518 18.0978C90.0563 17.5321 89.5901 16.7632 89.4531 15.791L92.2306 15.6451C92.3146 16.0561 92.5178 16.3699 92.8404 16.5864C93.163 16.7986 93.5762 16.9046 94.08 16.9046C94.575 16.9046 94.9727 16.8096 95.2732 16.6196C95.5781 16.4251 95.7328 16.1754 95.7372 15.8705C95.7328 15.6142 95.6245 15.4043 95.4124 15.2408C95.2003 15.0729 94.8733 14.9447 94.4313 14.8563L92.6681 14.505C91.6738 14.3061 90.9336 13.9614 90.4474 13.4709C89.9657 12.9804 89.7249 12.3551 89.7249 11.595C89.7249 10.9409 89.9017 10.3775 90.2552 9.90461C90.6132 9.43176 91.1147 9.06717 91.7599 8.81086C92.4096 8.55455 93.1697 8.42639 94.0402 8.42639C95.3262 8.42639 96.3382 8.69817 97.0762 9.24173C97.8187 9.78529 98.2517 10.5255 98.3755 11.4624Z" fill="#858892"/>
<path d="M83.3878 18.9396C82.3405 18.9396 81.4389 18.7275 80.6833 18.3033C79.932 17.8746 79.3531 17.2692 78.9465 16.487C78.54 15.7004 78.3367 14.7701 78.3367 13.6963C78.3367 12.6489 78.54 11.7297 78.9465 10.9387C79.3531 10.1477 79.9254 9.53119 80.6634 9.08927C81.4058 8.64735 82.2764 8.42639 83.2751 8.42639C83.9468 8.42639 84.5721 8.53466 85.1511 8.7512C85.7344 8.96332 86.2426 9.28371 86.6757 9.71238C87.1132 10.141 87.4535 10.6802 87.6965 11.3298C87.9396 11.975 88.0611 12.7307 88.0611 13.5968V14.3724H79.4636V12.6224H85.403C85.403 12.2158 85.3146 11.8557 85.1378 11.5419C84.961 11.2282 84.7158 10.9829 84.402 10.8061C84.0927 10.6249 83.7325 10.5343 83.3215 10.5343C82.8929 10.5343 82.5128 10.6338 82.1814 10.8326C81.8543 11.0271 81.598 11.29 81.4124 11.6215C81.2268 11.9485 81.1318 12.3131 81.1274 12.7152V14.379C81.1274 14.8828 81.2202 15.3181 81.4058 15.6849C81.5958 16.0517 81.8632 16.3345 82.2079 16.5334C82.5526 16.7323 82.9614 16.8317 83.4342 16.8317C83.748 16.8317 84.0352 16.7875 84.2959 16.6991C84.5567 16.6107 84.7799 16.4782 84.9655 16.3014C85.1511 16.1246 85.2925 15.9081 85.3897 15.6518L88.0014 15.8241C87.8689 16.4516 87.5971 16.9996 87.1861 17.4681C86.7795 17.9321 86.2537 18.2944 85.6084 18.5552C84.9677 18.8115 84.2275 18.9396 83.3878 18.9396Z" fill="#858892"/>
<path d="M69.9596 12.8544V18.7408H67.1357V8.55897H69.827V10.3554H69.9463C70.1717 9.7632 70.5496 9.29476 71.0799 8.95007C71.6102 8.60095 72.2532 8.42639 73.0088 8.42639C73.7159 8.42639 74.3324 8.58106 74.8583 8.89041C75.3842 9.19975 75.7929 9.64167 76.0846 10.2162C76.3763 10.7862 76.5221 11.4668 76.5221 12.2578V18.7408H73.6982V12.7616C73.7027 12.1385 73.5436 11.6524 73.221 11.3033C72.8984 10.9497 72.4542 10.773 71.8886 10.773C71.5085 10.773 71.1727 10.8547 70.881 11.0182C70.5938 11.1818 70.3684 11.4204 70.2049 11.7342C70.0458 12.0435 69.964 12.4169 69.9596 12.8544Z" fill="#858892"/>
<path d="M62.0497 18.7408V8.55897H64.8735V18.7408H62.0497ZM63.4682 7.24647C63.0484 7.24647 62.6882 7.10727 62.3877 6.82886C62.0916 6.54603 61.9436 6.20796 61.9436 5.81465C61.9436 5.42577 62.0916 5.09212 62.3877 4.81371C62.6882 4.53088 63.0484 4.38947 63.4682 4.38947C63.888 4.38947 64.246 4.53088 64.5421 4.81371C64.8426 5.09212 64.9928 5.42577 64.9928 5.81465C64.9928 6.20796 64.8426 6.54603 64.5421 6.82886C64.246 7.10727 63.888 7.24647 63.4682 7.24647Z" fill="#858892"/>
<path d="M60.0395 11.4624L57.4543 11.6215C57.4101 11.4005 57.3151 11.2016 57.1693 11.0249C57.0234 10.8437 56.8312 10.7001 56.5926 10.594C56.3583 10.4835 56.0777 10.4283 55.7507 10.4283C55.3132 10.4283 54.9442 10.5211 54.6437 10.7067C54.3432 10.8879 54.1929 11.1309 54.1929 11.4359C54.1929 11.6789 54.2902 11.8844 54.4846 12.0523C54.6791 12.2203 55.0127 12.3551 55.4856 12.4567L57.3284 12.8279C58.3183 13.0312 59.0563 13.3582 59.5424 13.809C60.0285 14.2597 60.2715 14.8519 60.2715 15.5855C60.2715 16.2528 60.0749 16.8383 59.6816 17.3421C59.2927 17.8459 58.758 18.2392 58.0774 18.522C57.4013 18.8004 56.6213 18.9396 55.7375 18.9396C54.3896 18.9396 53.3157 18.659 52.5159 18.0978C51.7204 17.5321 51.2542 16.7632 51.1172 15.791L53.8946 15.6451C53.9786 16.0561 54.1819 16.3699 54.5045 16.5864C54.8271 16.7986 55.2403 16.9046 55.7441 16.9046C56.239 16.9046 56.6368 16.8096 56.9373 16.6196C57.2422 16.4251 57.3969 16.1754 57.4013 15.8705C57.3969 15.6142 57.2886 15.4043 57.0765 15.2408C56.8643 15.0729 56.5373 14.9447 56.0954 14.8563L54.3321 14.505C53.3378 14.3061 52.5976 13.9614 52.1115 13.4709C51.6298 12.9804 51.389 12.3551 51.389 11.595C51.389 10.9409 51.5657 10.3775 51.9193 9.90461C52.2772 9.43176 52.7788 9.06717 53.424 8.81086C54.0736 8.55455 54.8337 8.42639 55.7043 8.42639C56.9903 8.42639 58.0023 8.69817 58.7403 9.24173C59.4827 9.78529 59.9158 10.5255 60.0395 11.4624Z" fill="#858892"/>
<path d="M46.4854 14.4056V8.55896H49.3093V18.7408H46.5981V16.8913H46.492C46.2622 17.4879 45.88 17.9674 45.3453 18.3298C44.815 18.6922 44.1675 18.8734 43.403 18.8734C42.7225 18.8734 42.1237 18.7187 41.6066 18.4093C41.0896 18.1 40.6852 17.6603 40.3936 17.0902C40.1063 16.5201 39.9605 15.8374 39.9561 15.0419V8.55896H42.7799V14.5381C42.7843 15.1391 42.9456 15.6142 43.2638 15.9633C43.582 16.3124 44.0085 16.487 44.5432 16.487C44.8835 16.487 45.2016 16.4097 45.4977 16.255C45.7938 16.0959 46.0324 15.8617 46.2136 15.5523C46.3992 15.243 46.4898 14.8607 46.4854 14.4056Z" fill="#858892"/>
<path d="M28.1418 18.7407V5.16498H30.9657V10.2691H31.0519C31.1756 9.99515 31.3546 9.71675 31.5888 9.43392C31.8275 9.14667 32.1368 8.90803 32.5168 8.71801C32.9013 8.52356 33.3786 8.42634 33.9487 8.42634C34.6911 8.42634 35.3761 8.62079 36.0036 9.00968C36.6311 9.39415 37.1327 9.97527 37.5083 10.753C37.884 11.5264 38.0718 12.4964 38.0718 13.6631C38.0718 14.7988 37.8884 15.7578 37.5216 16.54C37.1592 17.3178 36.6643 17.9077 36.0367 18.3099C35.4136 18.7076 34.7154 18.9065 33.942 18.9065C33.3941 18.9065 32.9278 18.8159 32.5434 18.6347C32.1633 18.4535 31.8518 18.2259 31.6087 17.9519C31.3656 17.6735 31.18 17.3929 31.0519 17.1101H30.9259V18.7407H28.1418ZM30.9061 13.6498C30.9061 14.2553 30.99 14.7833 31.1579 15.2341C31.3259 15.6849 31.5689 16.0362 31.8871 16.2881C32.2053 16.5356 32.592 16.6593 33.0471 16.6593C33.5067 16.6593 33.8956 16.5334 34.2138 16.2815C34.532 16.0251 34.7728 15.6716 34.9364 15.2208C35.1043 14.7657 35.1882 14.242 35.1882 13.6498C35.1882 13.0621 35.1065 12.545 34.943 12.0987C34.7795 11.6524 34.5386 11.3032 34.2204 11.0513C33.9023 10.7994 33.5112 10.6735 33.0471 10.6735C32.5876 10.6735 32.1987 10.795 31.8805 11.0381C31.5667 11.2811 31.3259 11.6258 31.1579 12.0722C30.99 12.5185 30.9061 13.0444 30.9061 13.6498Z" fill="#858892"/>
<path fill-rule="evenodd" clip-rule="evenodd" d="M12.0168 8.61105L15.0714 11.6657L12.1629 14.5742L9.10829 11.5195L12.0168 8.61105ZM8.88491 5.47917L6.96977 3.56403C6.86053 3.45478 6.86053 3.27767 6.96977 3.16842L9.70604 0.432151C9.81528 0.322909 9.9924 0.322909 10.1016 0.432151L19.4561 9.78657C20.4939 10.8244 20.4939 12.507 19.4561 13.5448L15.2948 17.7061L17.21 19.6212C17.3192 19.7304 17.3192 19.9076 17.21 20.0168L14.4737 22.7531C14.3644 22.8623 14.1873 22.8623 14.0781 22.7531L4.72367 13.3987C3.68586 12.3609 3.68586 10.6782 4.72367 9.64041L8.88491 5.47917Z" fill="#858892"/>
</svg>
