<svg width="116" height="24" viewBox="0 0 116 24" fill="none" xmlns="http://www.w3.org/2000/svg">
<path d="M112.076 8.11115H114.795L111.209 17.963C110.185 20.8003 108.51 22.0417 106.007 21.9037V19.5393C107.406 19.559 108.116 18.9679 108.589 17.6477L104.549 8.11115H107.328L109.889 14.7316L112.076 8.11115Z" fill="#858892"/>
<path d="M99.9701 7.83527C102.059 7.83527 103.694 9.29334 103.694 11.9139V17.963H101.152V12.2292C101.152 10.8893 100.344 10.1997 99.2016 10.1997C97.9603 10.1997 97.0342 10.9287 97.0342 12.643V17.963H94.4924V8.11112H97.0342V9.21452C97.6253 8.32786 98.6499 7.83527 99.9701 7.83527Z" fill="#858892"/>
<path d="M89.6458 8.11112H92.1876V17.963H89.6458V16.8005C88.9365 17.6871 87.8725 18.2388 86.4341 18.2388C83.8135 18.2388 81.6461 15.9729 81.6461 13.037C81.6461 10.1012 83.8135 7.83527 86.4341 7.83527C87.8725 7.83527 88.9365 8.38697 89.6458 9.27364V8.11112ZM86.907 15.8153C88.4833 15.8153 89.6458 14.6922 89.6458 13.037C89.6458 11.3819 88.4833 10.2588 86.907 10.2588C85.3504 10.2588 84.1879 11.3819 84.1879 13.037C84.1879 14.6922 85.3504 15.8153 86.907 15.8153Z" fill="#858892"/>
<path d="M75.5581 7.83527C78.1984 7.83527 80.3658 10.1012 80.3658 13.037C80.3658 15.9729 78.1984 18.2388 75.5581 18.2388C74.1198 18.2388 73.0755 17.7068 72.3661 16.8005V21.9037H69.8243V8.11112H72.3661V9.27364C73.0755 8.36727 74.1198 7.83527 75.5581 7.83527ZM75.0852 15.8153C76.6615 15.8153 77.824 14.6922 77.824 13.037C77.824 11.3819 76.6615 10.2588 75.0852 10.2588C73.5286 10.2588 72.3661 11.3819 72.3661 13.037C72.3661 14.6922 73.5286 15.8153 75.0852 15.8153Z" fill="#858892"/>
<path d="M63.9416 7.83527C66.1878 7.83527 67.6656 9.43127 67.6656 11.8942V17.963H65.1238V12.0716C65.1238 10.909 64.5327 10.1997 63.4687 10.1997C62.3456 10.1997 61.6362 10.9485 61.6362 12.4262V17.963H59.0944V12.0716C59.0944 10.909 58.5033 10.1997 57.4393 10.1997C56.3556 10.1997 55.5872 10.9485 55.5872 12.4262V17.963H53.0454V8.11112H55.5872V9.15541C56.1389 8.32786 57.065 7.83527 58.326 7.83527C59.5476 7.83527 60.454 8.34756 61.0057 9.25393C61.6165 8.36727 62.6017 7.83527 63.9416 7.83527Z" fill="#858892"/>
<path d="M46.0358 18.2388C43.1393 18.2388 40.834 15.9729 40.834 13.037C40.834 10.1012 43.1393 7.83527 46.0358 7.83527C48.9322 7.83527 51.2572 10.1012 51.2572 13.037C51.2572 15.9729 48.9322 18.2388 46.0358 18.2388ZM46.0358 15.7562C47.5529 15.7562 48.7155 14.633 48.7155 13.037C48.7155 11.441 47.5529 10.3179 46.0358 10.3179C44.5383 10.3179 43.3758 11.441 43.3758 13.037C43.3758 14.633 44.5383 15.7562 46.0358 15.7562Z" fill="#858892"/>
<path d="M35.7029 18.2388C32.7079 18.2388 30.5011 15.9729 30.5011 13.037C30.5011 10.1012 32.7079 7.83527 35.7029 7.83527C37.6338 7.83527 39.3087 8.85986 40.1165 10.377L37.9294 11.6578C37.5353 10.8499 36.6881 10.3376 35.6832 10.3376C34.166 10.3376 33.0429 11.4607 33.0429 13.037C33.0429 14.5936 34.166 15.7167 35.6832 15.7167C36.7078 15.7167 37.555 15.2242 37.9491 14.4163L40.1559 15.6773C39.3087 17.2142 37.6338 18.2388 35.7029 18.2388Z" fill="#858892"/>
<path fill-rule="evenodd" clip-rule="evenodd" d="M8.80926 2.46875C7.95913 2.46875 7.26995 3.15792 7.26995 4.00806V8.81595H2.37342C1.52328 8.81595 0.834106 9.50512 0.834106 10.3553V21.7046C0.834106 22.5548 1.52328 23.244 2.37342 23.244H13.588C14.4381 23.244 15.1273 22.5548 15.1273 21.7046V16.8968H20.0238C20.8739 16.8968 21.5631 16.2076 21.5631 15.3574V4.00806C21.5631 3.15792 20.8739 2.46875 20.0238 2.46875H8.80926ZM15.1273 16.8968V10.3553C15.1273 9.50512 14.4381 8.81595 13.588 8.81595H7.26995V15.3574C7.26995 16.2076 7.95913 16.8968 8.80926 16.8968H15.1273Z" fill="#858892"/>
</svg>
