<svg width="43" height="43" viewBox="0 0 43 43" fill="none" xmlns="http://www.w3.org/2000/svg">
<rect x="0.720276" y="0.353027" width="42.1429" height="42.1429" rx="21.0715" fill="#5865F2"/>
<path d="M29.4754 14.5173C31.9586 18.1941 33.1849 22.3416 32.7265 27.1162C32.7246 27.1364 32.7141 27.155 32.6976 27.1671C30.8172 28.5577 28.9952 29.4017 27.1988 29.9614C27.1848 29.9656 27.1699 29.9654 27.156 29.9607C27.1422 29.956 27.1301 29.947 27.1216 29.9351C26.7066 29.3535 26.3295 28.7404 25.9991 28.0966C25.9802 28.0587 25.9975 28.013 26.0365 27.9981C26.6354 27.7708 27.2049 27.4985 27.7526 27.176C27.7958 27.1505 27.7985 27.0883 27.7587 27.0584C27.6424 26.9715 27.5273 26.8801 27.4171 26.7888C27.3964 26.7719 27.3687 26.7686 27.3453 26.7799C23.7891 28.4337 19.8935 28.4337 16.2952 26.7799C16.2718 26.7694 16.2441 26.773 16.224 26.7896C16.1141 26.8809 15.9986 26.9715 15.8835 27.0584C15.8436 27.0883 15.8469 27.1505 15.8903 27.176C16.4381 27.4924 17.0076 27.7708 17.6056 27.9992C17.6444 28.0141 17.6628 28.0587 17.6436 28.0966C17.3204 28.7413 16.9433 29.3543 16.5206 29.9359C16.5021 29.9594 16.4719 29.9702 16.4433 29.9614C14.6555 29.4017 12.8335 28.5577 10.953 27.1671C10.9374 27.155 10.9261 27.1356 10.9244 27.1154C10.5413 22.9854 11.3221 18.8036 14.1726 14.5164C14.1794 14.5051 14.1899 14.4962 14.202 14.491C15.6045 13.8427 17.1071 13.3658 18.6775 13.0935C18.7061 13.089 18.7347 13.1023 18.7496 13.1278C18.9436 13.4738 19.1654 13.9175 19.3155 14.2801C20.9708 14.0254 22.6521 14.0254 24.3421 14.2801C24.4922 13.9252 24.7063 13.4738 24.8995 13.1278C24.9064 13.1151 24.917 13.105 24.93 13.0989C24.9429 13.0927 24.9574 13.0908 24.9715 13.0935C26.5428 13.3666 28.0453 13.8436 29.4468 14.491C29.4591 14.4962 29.4693 14.5051 29.4754 14.5173V14.5173ZM20.157 22.3698C20.1743 21.1489 19.2904 20.1386 18.1809 20.1386C17.0804 20.1386 16.205 21.14 16.205 22.3698C16.205 23.5993 17.0977 24.6007 18.1809 24.6007C19.2816 24.6007 20.157 23.5993 20.157 22.3698V22.3698ZM27.4629 22.3698C27.4803 21.1489 26.5964 20.1386 25.4871 20.1386C24.3863 20.1386 23.511 21.14 23.511 22.3698C23.511 23.5993 24.4037 24.6007 25.4871 24.6007C26.5964 24.6007 27.4629 23.5993 27.4629 22.3698V22.3698Z" fill="white"/>
</svg>
