<svg width="114" height="23" viewBox="0 0 114 23" fill="none" xmlns="http://www.w3.org/2000/svg">
<path d="M105.896 11.585H110.003C109.966 10.6703 109.368 9.7743 107.95 9.7743C106.662 9.7743 105.952 10.745 105.896 11.585ZM110.246 13.9743L112.318 14.5903C111.851 16.177 110.395 17.5023 108.136 17.5023C105.616 17.5023 103.395 15.6916 103.395 12.593C103.395 9.6623 105.56 7.7583 107.912 7.7583C110.75 7.7583 112.448 9.56897 112.448 12.5183C112.448 12.873 112.411 13.2463 112.411 13.2836H105.84C105.896 14.497 106.923 15.3743 108.155 15.3743C109.312 15.3743 109.947 14.7956 110.246 13.9743Z" fill="#858892"/>
<path d="M95.1073 14.665L97.2353 14.1983C97.2913 14.9263 97.8326 15.5983 98.9153 15.5983C99.7366 15.5983 100.129 15.169 100.129 14.6836C100.129 14.273 99.8486 13.937 99.1393 13.7876L97.926 13.5076C96.1526 13.1156 95.35 12.0516 95.35 10.7636C95.35 9.12097 96.806 7.7583 98.7846 7.7583C101.398 7.7583 102.275 9.41963 102.387 10.409L100.315 10.8756C100.241 10.3343 99.8486 9.64363 98.8033 9.64363C98.15 9.64363 97.6273 10.0356 97.6273 10.5583C97.6273 11.0063 97.9633 11.2863 98.4673 11.3796L99.774 11.6596C101.585 12.033 102.499 13.1343 102.499 14.4783C102.499 15.9716 101.342 17.5023 98.934 17.5023C96.1713 17.5023 95.2193 15.7103 95.1073 14.665Z" fill="#858892"/>
<path d="M93.6066 17.2222H91.124V8.03825H93.6066V17.2222ZM90.8253 5.03291C90.8253 4.17425 91.516 3.48358 92.356 3.48358C93.2146 3.48358 93.8867 4.17425 93.8867 5.03291C93.8867 5.85425 93.2146 6.54492 92.356 6.54492C91.516 6.54492 90.8253 5.85425 90.8253 5.03291Z" fill="#858892"/>
<path d="M89.751 8.00096V10.5023C89.471 10.4463 89.2283 10.4276 89.0043 10.4276C87.735 10.4276 86.6337 11.0436 86.6337 13.0223V17.2223H84.151V8.03829H86.559V9.40096C87.119 8.18762 88.3883 7.96362 89.1723 7.96362C89.3777 7.96362 89.5643 7.98229 89.751 8.00096Z" fill="#858892"/>
<path d="M75.5773 20.7689H73.0946V8.03828H75.5026V9.15828C75.9133 8.44895 76.9399 7.83295 78.3213 7.83295C81.0093 7.83295 82.5586 9.88628 82.5586 12.6116C82.5586 15.3929 80.8226 17.4463 78.2279 17.4463C76.9586 17.4463 76.0253 16.9423 75.5773 16.3263V20.7689ZM80.1133 12.6303C80.1133 11.0063 79.1053 10.0543 77.8359 10.0543C76.5666 10.0543 75.5399 11.0063 75.5399 12.6303C75.5399 14.2543 76.5666 15.2249 77.8359 15.2249C79.1053 15.2249 80.1133 14.2729 80.1133 12.6303Z" fill="#858892"/>
<path d="M71.7216 8.00096V10.5023C71.4416 10.4463 71.1989 10.4276 70.9749 10.4276C69.7056 10.4276 68.6042 11.0436 68.6042 13.0223V17.2223H66.1216V8.03829H68.5296V9.40096C69.0896 8.18762 70.3589 7.96362 71.1429 7.96362C71.3482 7.96362 71.5349 7.98229 71.7216 8.00096Z" fill="#858892"/>
<path d="M57.9879 11.585H62.0946C62.0572 10.6703 61.4599 9.7743 60.0412 9.7743C58.7532 9.7743 58.0439 10.745 57.9879 11.585ZM62.3372 13.9743L64.4092 14.5903C63.9426 16.177 62.4866 17.5023 60.2279 17.5023C57.7079 17.5023 55.4866 15.6916 55.4866 12.593C55.4866 9.6623 57.6519 7.7583 60.0039 7.7583C62.8412 7.7583 64.5399 9.56897 64.5399 12.5183C64.5399 12.873 64.5026 13.2463 64.5026 13.2836H57.9319C57.9879 14.497 59.0146 15.3743 60.2466 15.3743C61.4039 15.3743 62.0386 14.7956 62.3372 13.9743Z" fill="#858892"/>
<path d="M52.6848 5.29425V8.03825H54.5328V10.2409H52.6848V14.0863C52.6848 14.8889 53.0581 15.1503 53.7674 15.1503C54.0661 15.1503 54.4021 15.1129 54.5328 15.0756V17.1289C54.3088 17.2223 53.8608 17.3529 53.1328 17.3529C51.3408 17.3529 50.2208 16.2889 50.2208 14.5156V10.2409H48.5594V8.03825H49.0261C49.9968 8.03825 50.4448 7.40358 50.4448 6.58225V5.29425H52.6848Z" fill="#858892"/>
<path d="M41.5785 11.9396V17.2223H39.0958V8.03826H41.5038V9.17693C42.0638 8.22493 43.1652 7.79559 44.1545 7.79559C46.4318 7.79559 47.4772 9.41959 47.4772 11.4356V17.2223H44.9945V11.8649C44.9945 10.8383 44.4905 10.0356 43.2958 10.0356C42.2132 10.0356 41.5785 10.8756 41.5785 11.9396Z" fill="#858892"/>
<path d="M30.962 11.585H35.0687C35.0314 10.6703 34.434 9.7743 33.0154 9.7743C31.7274 9.7743 31.018 10.745 30.962 11.585ZM35.3114 13.9743L37.3834 14.5903C36.9167 16.177 35.4607 17.5023 33.202 17.5023C30.682 17.5023 28.4607 15.6916 28.4607 12.593C28.4607 9.6623 30.626 7.7583 32.978 7.7583C35.8154 7.7583 37.514 9.56897 37.514 12.5183C37.514 12.873 37.4767 13.2463 37.4767 13.2836H30.906C30.962 14.497 31.9887 15.3743 33.2207 15.3743C34.378 15.3743 35.0127 14.7956 35.3114 13.9743Z" fill="#858892"/>
<g clip-path="url(#clip0_5771_24575)">
<path fill-rule="evenodd" clip-rule="evenodd" d="M0.939949 15.3433C0.939949 15.854 1.45715 16.202 1.93019 16.0097L8.25114 13.4402C8.52227 13.33 8.6996 13.0665 8.6996 12.7738L8.6996 9.87218C8.6996 9.5795 8.87693 9.316 9.14806 9.20579L15.4917 6.62706C15.7629 6.51684 15.9402 6.25334 15.9402 5.96067L15.9402 2.55879C15.9402 2.1615 15.6181 1.83944 15.2208 1.83944L8.89989 1.83944C8.5026 1.83944 8.18054 2.1615 8.18054 2.55879L8.18054 7.93327C8.18054 8.33056 7.85847 8.65262 7.46119 8.65262L1.6593 8.65262C1.26201 8.65262 0.939949 8.97469 0.939949 9.37197L0.939949 15.3433Z" fill="#858892"/>
<path fill-rule="evenodd" clip-rule="evenodd" d="M21.4287 6.76237C21.4287 6.25174 20.9115 5.90368 20.4385 6.09598L14.1175 8.66547C13.8464 8.77569 13.6691 9.03919 13.6691 9.33186V12.2335C13.6691 12.5262 13.4917 12.7897 13.2206 12.8999L6.87692 15.4786C6.60579 15.5888 6.42847 15.8523 6.42847 16.145V19.5469C6.42847 19.9442 6.75053 20.2662 7.14782 20.2662H13.4688C13.8661 20.2662 14.1881 19.9442 14.1881 19.5469V14.1724C14.1881 13.7752 14.5102 13.4531 14.9075 13.4531H20.7094C21.1066 13.4531 21.4287 13.131 21.4287 12.7337V6.76237Z" fill="#858892"/>
</g>
<defs>
<clipPath id="clip0_5771_24575">
<rect width="21.2593" height="21.2593" fill="white" transform="translate(0.554565 1.00006)"/>
</clipPath>
</defs>
</svg>
