<svg width="31" height="32" viewBox="0 0 31 32" fill="none" xmlns="http://www.w3.org/2000/svg">
<rect x="0.727814" y="0.408203" width="30" height="31" rx="15" fill="#F1F1F1"/>
<path d="M24.5311 16.4918C24.5311 15.8533 24.4713 15.1941 24.3716 14.5762L15.7404 14.5762L15.7404 18.222L20.6839 18.222C20.4846 19.3961 19.8268 20.426 18.85 21.0852L21.8002 23.454C23.5344 21.7855 24.5311 19.3549 24.5311 16.4918Z" fill="#4280EF"/>
<path d="M15.7423 25.7204C18.2141 25.7204 20.2872 24.8759 21.8021 23.434L18.8519 21.0858C18.0347 21.6626 16.9782 21.9922 15.7423 21.9922C13.3502 21.9922 11.3369 20.3237 10.5994 18.0991L7.56949 20.5091C9.12431 23.7018 12.2738 25.7204 15.7423 25.7204Z" fill="#34A353"/>
<path d="M10.5993 18.0783C10.2206 16.9042 10.2206 15.6271 10.5993 14.453L7.56942 12.0225C6.27373 14.7002 6.27373 17.8517 7.56942 20.5089L10.5993 18.0783Z" fill="#F6B704"/>
<path d="M15.7423 10.5598C17.038 10.5392 18.3137 11.0541 19.2506 11.981L21.8619 9.26208C20.2074 7.65543 18.0147 6.79031 15.7423 6.81091C12.2738 6.81091 9.12431 8.82952 7.56949 12.0222L10.5994 14.4528C11.337 12.2076 13.3503 10.5598 15.7423 10.5598Z" fill="#E54335"/>
</svg>
