<svg width="103" height="24" viewBox="0 0 103 24" fill="none" xmlns="http://www.w3.org/2000/svg">
<path d="M96.7739 7.60822C99.4805 7.60822 101.254 9.49355 101.254 12.0135C101.254 12.4429 101.179 12.8349 101.105 13.1895H94.4219C94.5712 14.6829 95.8219 15.4669 97.2219 15.4669C98.3232 15.4669 99.1445 15.0002 99.7232 14.4029L101.067 16.0082C99.8912 17.1282 98.6779 17.5762 97.1099 17.5762C93.9739 17.5762 91.9019 15.3922 91.9019 12.6109C91.9019 9.82955 93.9365 7.60822 96.7739 7.60822ZM96.7552 9.64288C95.5605 9.64288 94.6272 10.3522 94.4219 11.5469H98.8832V11.5282C98.7899 10.3522 97.8939 9.64288 96.7552 9.64288Z" fill="#858892"/>
<path d="M84.7859 7.83222H86.2046V5.23755H88.5566V7.83222H90.8152V9.77355H88.5566V14.0109C88.5566 14.9255 89.0046 15.3922 89.8819 15.3922C90.1619 15.3922 90.6286 15.3549 91.0579 15.0749V17.2029C90.6286 17.4269 90.0499 17.5762 89.2472 17.5762C87.3059 17.5762 86.1299 16.4375 86.1299 14.3655V9.77355H84.7859V7.83222Z" fill="#858892"/>
<path d="M74.069 7.83221H76.4956V13.3202C76.4956 14.6829 77.2983 15.4109 78.4183 15.4109C79.9303 15.4109 80.6023 14.0295 80.6023 12.7415V7.83221H83.029V17.3522H80.6956V16.0455C80.0983 17.0349 79.165 17.5762 77.765 17.5762C75.525 17.5762 74.069 16.1202 74.069 13.6002V7.83221Z" fill="#858892"/>
<path d="M66.3197 7.83222H67.7384V5.23755H70.0904V7.83222H72.349V9.77355H70.0904V14.0109C70.0904 14.9255 70.5384 15.3922 71.4157 15.3922C71.6957 15.3922 72.1624 15.3549 72.5917 15.0749V17.2029C72.1624 17.4269 71.5837 17.5762 70.781 17.5762C68.8397 17.5762 67.6637 16.4375 67.6637 14.3655V9.77355H66.3197V7.83222Z" fill="#858892"/>
<path d="M62.1323 17.3522V7.83224H64.559V17.3522H62.1323ZM63.327 3.70691C64.0923 3.70691 64.727 4.26691 64.727 5.06958C64.727 5.87224 64.0923 6.45091 63.327 6.45091C62.5243 6.45091 61.927 5.87224 61.927 5.06958C61.927 4.26691 62.5243 3.70691 63.327 3.70691Z" fill="#858892"/>
<path d="M54.1609 7.83222H55.5796V5.23755H57.9316V7.83222H60.1902V9.77355H57.9316V14.0109C57.9316 14.9255 58.3796 15.3922 59.2569 15.3922C59.5369 15.3922 60.0036 15.3549 60.4329 15.0749V17.2029C60.0036 17.4269 59.4249 17.5762 58.6222 17.5762C56.6809 17.5762 55.5049 16.4375 55.5049 14.3655V9.77355H54.1609V7.83222Z" fill="#858892"/>
<path d="M49.425 17.5762C47.7077 17.5762 46.233 16.7735 45.505 15.4295L47.1477 14.2162C47.6703 15.0375 48.3983 15.6162 49.425 15.6162C50.321 15.6162 50.8623 15.2989 50.8623 14.7949C50.8623 14.1975 50.3583 13.9549 48.809 13.4322C46.8677 12.7789 45.8223 12.0135 45.8223 10.4455C45.8223 8.80288 47.4277 7.60822 49.481 7.60822C51.049 7.60822 52.337 8.35488 52.953 9.49355L51.329 10.6695C50.937 10.0162 50.3397 9.54955 49.4437 9.54955C48.6783 9.54955 48.0997 9.90422 48.0997 10.4269C48.0997 10.9309 48.6037 11.1922 50.0783 11.7149C51.889 12.3682 53.1397 13.0029 53.1397 14.7389C53.1397 16.3442 51.6277 17.5762 49.425 17.5762Z" fill="#858892"/>
<path d="M34.8069 7.83221H37.1402V9.13888C37.7376 8.14955 38.6709 7.60822 40.0709 7.60822C42.3109 7.60822 43.7669 9.06422 43.7669 11.5842V17.3522H41.3402V11.8642C41.3402 10.5015 40.5376 9.77355 39.4176 9.77355C37.9056 9.77355 37.2336 11.1362 37.2336 12.4429V17.3522H34.8069V7.83221Z" fill="#858892"/>
<path d="M29.6116 17.3522V7.83224H32.0383V17.3522H29.6116ZM30.8063 3.70691C31.5716 3.70691 32.2063 4.26691 32.2063 5.06958C32.2063 5.87224 31.5716 6.45091 30.8063 6.45091C30.0036 6.45091 29.4062 5.87224 29.4062 5.06958C29.4062 4.26691 30.0036 3.70691 30.8063 3.70691Z" fill="#858892"/>
<path fill-rule="evenodd" clip-rule="evenodd" d="M6.54541 1.97681C3.08086 3.65579 0.691895 7.20614 0.691895 11.3145C0.691895 17.0419 5.33487 21.6848 11.0623 21.6848C15.1705 21.6848 18.7209 19.2959 20.3999 15.8314H11.0623L11.0623 15.8314C8.58315 15.8314 6.57047 13.8341 6.54563 11.3608H6.54541V11.3237L6.5454 11.3145L6.54541 11.3053V1.97681ZM21.2893 13.0423C21.3836 12.4804 21.4326 11.9032 21.4326 11.3145C21.4326 5.58707 16.7897 0.944092 11.0623 0.944092C10.4736 0.944092 9.89641 0.993138 9.33452 1.08737V7.13981C9.86677 6.91928 10.4503 6.79757 11.0623 6.79757C13.5569 6.79757 15.5792 8.81986 15.5792 11.3145C15.5792 11.9265 15.4575 12.51 15.237 13.0423H21.2893Z" fill="#858892"/>
</svg>
