<svg width="42" height="43" viewBox="0 0 42 43" fill="none" xmlns="http://www.w3.org/2000/svg">
<rect x="0.0146484" y="0.543457" width="41.9649" height="41.9649" rx="20.9825" fill="url(#paint0_linear_5_28194)"/>
<path d="M17.5048 21.5797C17.5048 19.6466 19.0709 18.0792 21.0034 18.0792C22.9358 18.0792 24.5028 19.6466 24.5028 21.5797C24.5028 23.5127 22.9358 25.0801 21.0034 25.0801C19.0709 25.0801 17.5048 23.5127 17.5048 21.5797ZM15.613 21.5797C15.613 24.5576 18.0263 26.9716 21.0034 26.9716C23.9805 26.9716 26.3937 24.5576 26.3937 21.5797C26.3937 18.6017 23.9805 16.1877 21.0034 16.1877C18.0263 16.1877 15.613 18.6017 15.613 21.5797ZM25.3474 15.974C25.3473 16.2232 25.4211 16.4668 25.5594 16.6741C25.6978 16.8814 25.8945 17.043 26.1246 17.1384C26.3547 17.2339 26.608 17.2589 26.8524 17.2104C27.0968 17.1619 27.3213 17.042 27.4975 16.8658C27.6738 16.6897 27.7938 16.4652 27.8425 16.2208C27.8912 15.9764 27.8664 15.723 27.7711 15.4927C27.6759 15.2624 27.5145 15.0656 27.3074 14.927C27.1003 14.7885 26.8568 14.7145 26.6076 14.7144H26.6071C26.2732 14.7145 25.9529 14.8473 25.7167 15.0835C25.4805 15.3196 25.3477 15.6399 25.3474 15.974ZM16.7624 30.1269C15.7389 30.0802 15.1826 29.9097 14.813 29.7656C14.3228 29.5748 13.9731 29.3475 13.6055 28.9802C13.2378 28.6129 13.0102 28.2635 12.8203 27.7732C12.6762 27.4036 12.5057 26.847 12.4592 25.8232C12.4083 24.7164 12.3981 24.3839 12.3981 21.5797C12.3981 18.7756 12.4091 18.444 12.4592 17.3363C12.5058 16.3125 12.6775 15.757 12.8203 15.3863C13.0111 14.896 13.2383 14.5462 13.6055 14.1784C13.9726 13.8107 14.322 13.583 14.813 13.393C15.1825 13.2489 15.7389 13.0783 16.7624 13.0318C17.8689 12.9809 18.2013 12.9707 21.0034 12.9707C23.8055 12.9707 24.1382 12.9817 25.2456 13.0318C26.2691 13.0784 26.8245 13.2502 27.1951 13.393C27.6852 13.583 28.0349 13.8112 28.4025 14.1784C28.7702 14.5457 28.997 14.896 29.1878 15.3863C29.3319 15.7559 29.5023 16.3125 29.5489 17.3363C29.5998 18.444 29.6099 18.7756 29.6099 21.5797C29.6099 24.3839 29.5998 24.7155 29.5489 25.8232C29.5023 26.847 29.3309 27.4034 29.1878 27.7732C28.997 28.2635 28.7697 28.6133 28.4025 28.9802C28.0354 29.3471 27.6852 29.5748 27.1951 29.7656C26.8256 29.9098 26.2691 30.0803 25.2456 30.1269C24.1391 30.1778 23.8067 30.1879 21.0034 30.1879C18.2 30.1879 17.8686 30.1778 16.7624 30.1269ZM16.6755 11.1427C15.5579 11.1936 14.7943 11.3708 14.1274 11.6304C13.4368 11.8985 12.8521 12.2581 12.2678 12.8416C11.6836 13.4251 11.325 14.0109 11.057 14.7017C10.7975 15.3692 10.6203 16.1326 10.5694 17.2505C10.5177 18.3701 10.5059 18.728 10.5059 21.5797C10.5059 24.4313 10.5177 24.7892 10.5694 25.9088C10.6203 27.0268 10.7975 27.7901 11.057 28.4576C11.325 29.148 11.6837 29.7345 12.2678 30.3177C12.852 30.901 13.4368 31.2601 14.1274 31.5289C14.7956 31.7885 15.5579 31.9657 16.6755 32.0166C17.7953 32.0675 18.1526 32.0802 21.0034 32.0802C23.8542 32.0802 24.212 32.0684 25.3313 32.0166C26.4489 31.9657 27.212 31.7885 27.8793 31.5289C28.5696 31.2601 29.1547 30.9012 29.7389 30.3177C30.3232 29.7342 30.681 29.148 30.9497 28.4576C31.2092 27.7901 31.3873 27.0267 31.4373 25.9088C31.4882 24.7884 31.5001 24.4313 31.5001 21.5797C31.5001 18.728 31.4882 18.3701 31.4373 17.2505C31.3864 16.1326 31.2092 15.3688 30.9497 14.7017C30.681 14.0113 30.3222 13.426 29.7389 12.8416C29.1556 12.2572 28.5696 11.8985 27.8802 11.6304C27.212 11.3708 26.4488 11.1928 25.3321 11.1427C24.2129 11.0918 23.855 11.0791 21.0042 11.0791C18.1534 11.0791 17.7953 11.0909 16.6755 11.1427Z" fill="white"/>
<defs>
<linearGradient id="paint0_linear_5_28194" x1="41.173" y1="42.5084" x2="-0.791916" y2="0.543456" gradientUnits="userSpaceOnUse">
<stop stop-color="#FBE18A"/>
<stop offset="0.21" stop-color="#FCBB45"/>
<stop offset="0.38" stop-color="#F75274"/>
<stop offset="0.52" stop-color="#D53692"/>
<stop offset="0.74" stop-color="#8F39CE"/>
<stop offset="1" stop-color="#5B4FE9"/>
</linearGradient>
</defs>
</svg>
