<svg width="41" height="41" viewBox="0 0 41 41" fill="none" xmlns="http://www.w3.org/2000/svg">
<rect x="0.947144" y="0.798828" width="39.7031" height="39.7031" rx="19.8516" fill="#006699"/>
<path d="M16.2317 28.6958L16.2317 17.9708L12.67 17.9708L12.67 28.6958L16.2321 28.6958H16.2317ZM14.4516 16.5068C15.6934 16.5068 16.4665 15.6832 16.4665 14.654C16.4432 13.6013 15.6934 12.8008 14.4752 12.8008C13.2562 12.8008 12.4601 13.6013 12.4601 14.6539C12.4601 15.6831 13.2329 16.5067 14.4283 16.5067H14.4513L14.4516 16.5068ZM18.2031 28.6958L21.7645 28.6958L21.7645 22.7071C21.7645 22.387 21.7877 22.0661 21.8818 21.8374C22.1392 21.1967 22.7252 20.5335 23.7093 20.5335C24.9977 20.5335 25.5135 21.5169 25.5135 22.9588L25.5135 28.6958L29.0747 28.6958L29.0747 22.5464C29.0747 19.2523 27.3179 17.7194 24.9747 17.7194C23.0536 17.7194 22.2098 18.7941 21.741 19.5261H21.7648L21.7648 17.9712L18.2033 17.9712C18.2498 18.9773 18.203 28.6961 18.203 28.6961L18.2031 28.6958Z" fill="white"/>
</svg>
