<svg width="53" height="53" viewBox="0 0 53 53" fill="none" xmlns="http://www.w3.org/2000/svg">
<rect y="0.300781" width="53" height="52" rx="26" fill="url(#paint0_radial_5_25903)"/>
<path d="M26.5714 13.3628C19.1038 13.3628 13.3134 18.7318 13.3134 25.9804C13.3134 29.7721 14.8977 33.0501 17.4764 35.3135C17.6919 35.5021 17.8244 35.7687 17.8311 36.0549L17.904 38.3703C17.9093 38.5406 17.9572 38.7071 18.0434 38.8551C18.1297 39.003 18.2516 39.1279 18.3986 39.2188C18.5455 39.3097 18.713 39.3638 18.8863 39.3763C19.0595 39.3888 19.2332 39.3594 19.3922 39.2906L22.0239 38.1524C22.246 38.0548 22.4979 38.0386 22.7332 38.1004C23.943 38.4256 25.229 38.6012 26.5714 38.6012C34.0389 38.6012 39.8293 33.2322 39.8293 25.9836C39.8293 18.735 34.0389 13.3628 26.5714 13.3628Z" fill="white"/>
<path d="M18.61 29.6713L22.5045 23.6097C22.651 23.3815 22.8441 23.1855 23.0717 23.0342C23.2993 22.883 23.5564 22.7796 23.8267 22.7307C24.0971 22.6818 24.3748 22.6884 24.6424 22.7502C24.91 22.8119 25.1617 22.9274 25.3815 23.0894L28.4805 25.369C28.6189 25.4706 28.7872 25.5253 28.96 25.5247C29.1328 25.5241 29.3008 25.4683 29.4384 25.3657L33.6213 22.2504C34.1781 21.8341 34.9073 22.491 34.5361 23.0731L30.6382 29.1315C30.4917 29.3597 30.2986 29.5556 30.071 29.7069C29.8434 29.8582 29.5864 29.9616 29.316 30.0105C29.0457 30.0594 28.7679 30.0527 28.5003 29.991C28.2327 29.9293 27.9811 29.8138 27.7613 29.6518L24.6622 27.3722C24.5239 27.2706 24.3555 27.2159 24.1827 27.2165C24.0099 27.2171 23.842 27.2729 23.7043 27.3754L19.5215 30.4908C18.9646 30.9071 18.2354 30.2534 18.61 29.6713Z" fill="url(#paint1_radial_5_25903)"/>
<defs>
<radialGradient id="paint0_radial_5_25903" cx="0" cy="0" r="1" gradientUnits="userSpaceOnUse" gradientTransform="translate(8.8775 52.2994) scale(58.3 57.1984)">
<stop stop-color="#0099FF"/>
<stop offset="0.6" stop-color="#A033FF"/>
<stop offset="0.9" stop-color="#FF5280"/>
<stop offset="1" stop-color="#FF7061"/>
</radialGradient>
<radialGradient id="paint1_radial_5_25903" cx="0" cy="0" r="1" gradientUnits="userSpaceOnUse" gradientTransform="translate(17.7548 39.3784) scale(29.1675 28.6172)">
<stop stop-color="#0099FF"/>
<stop offset="0.6" stop-color="#A033FF"/>
<stop offset="0.9" stop-color="#FF5280"/>
<stop offset="1" stop-color="#FF7061"/>
</radialGradient>
</defs>
</svg>
