<svg width="141" height="23" viewBox="0 0 141 23" fill="none" xmlns="http://www.w3.org/2000/svg">
<path d="M132.408 8.61598C133.204 7.65776 134.188 7.17242 135.357 7.15998C135.992 7.14753 136.552 7.25331 137.037 7.47731C137.523 7.68887 137.915 7.98131 138.213 8.35465C138.574 8.7902 138.823 9.30042 138.96 9.88531C139.097 10.4578 139.165 11.0986 139.165 11.808V17.2026H136.515V12.0133C136.515 11.6649 136.477 11.3351 136.403 11.024C136.34 10.7004 136.228 10.4266 136.067 10.2026C135.905 9.9662 135.687 9.79198 135.413 9.67998C135.152 9.56798 134.853 9.51198 134.517 9.51198C134.094 9.52442 133.733 9.61776 133.435 9.79198C133.148 9.9662 132.931 10.1902 132.781 10.464C132.632 10.7253 132.526 11.024 132.464 11.36C132.414 11.6835 132.389 12.0133 132.389 12.3493V17.2026H129.757V7.36531H132.277L132.408 8.61598Z" fill="#858892"/>
<path d="M123.083 17.352C121.49 17.352 120.265 16.904 119.406 16.008C118.547 15.0995 118.118 13.8426 118.118 12.2373C118.118 11.4658 118.23 10.7689 118.454 10.1466C118.69 9.51197 119.014 8.97064 119.425 8.52264C119.848 8.07464 120.364 7.73864 120.974 7.51464C121.596 7.2782 122.299 7.15997 123.083 7.15997C123.855 7.15997 124.546 7.2782 125.155 7.51464C125.778 7.73864 126.3 8.07464 126.723 8.52264C127.159 8.97064 127.489 9.51197 127.713 10.1466C127.949 10.7689 128.067 11.4658 128.067 12.2373C128.067 13.8551 127.632 15.112 126.761 16.008C125.902 16.904 124.676 17.352 123.083 17.352ZM123.083 9.51197C122.274 9.51197 121.677 9.77331 121.291 10.296C120.906 10.8186 120.713 11.472 120.713 12.256C120.713 13.0524 120.906 13.712 121.291 14.2346C121.677 14.7573 122.274 15.0186 123.083 15.0186C123.892 15.0186 124.483 14.7573 124.857 14.2346C125.23 13.712 125.417 13.0524 125.417 12.256C125.417 11.472 125.23 10.8186 124.857 10.296C124.483 9.77331 123.892 9.51197 123.083 9.51197Z" fill="#858892"/>
<path d="M114.953 2.79199C115.438 2.79199 115.83 2.9351 116.129 3.22133C116.428 3.50755 116.577 3.8871 116.577 4.35999C116.577 4.85777 116.428 5.24977 116.129 5.53599C115.83 5.80977 115.438 5.94666 114.953 5.94666C114.48 5.94666 114.088 5.80977 113.777 5.53599C113.478 5.24977 113.329 4.85777 113.329 4.35999C113.329 3.8871 113.478 3.50755 113.777 3.22133C114.088 2.9351 114.48 2.79199 114.953 2.79199ZM116.278 17.2027H113.646V7.36533H116.278V17.2027Z" fill="#858892"/>
<path d="M109.73 9.66132V13.6373C109.73 14.4835 110.16 14.9067 111.018 14.9067H111.989V17.2027H110.757C109.45 17.2524 108.511 17.0035 107.938 16.456C107.378 15.9084 107.098 15.0809 107.098 13.9733V9.66132H105.605V7.36532H107.098V4.69598H109.73V7.36532H112.082V9.66132H109.73Z" fill="#858892"/>
<path d="M101.811 15.9893C101.438 16.4871 100.984 16.8418 100.448 17.0533C99.9133 17.2649 99.2911 17.3644 98.5818 17.352C97.6733 17.3271 96.9142 17.072 96.3044 16.5866C95.9809 16.3129 95.7258 15.9893 95.5391 15.616C95.3649 15.2302 95.2778 14.776 95.2778 14.2533C95.2902 13.7182 95.4084 13.2453 95.6324 12.8346C95.8689 12.4115 96.2235 12.0631 96.6964 11.7893C97.0947 11.5778 97.5427 11.4284 98.0404 11.3413C98.5507 11.2542 99.1044 11.2106 99.7018 11.2106H101.718C101.755 10.6009 101.612 10.1466 101.288 9.84797C100.977 9.53686 100.536 9.37508 99.9631 9.36264C99.7764 9.36264 99.5835 9.37508 99.3844 9.39997C99.1853 9.42486 98.9987 9.47464 98.8244 9.54931C98.6627 9.62397 98.5195 9.72975 98.3951 9.86664C98.2831 9.99108 98.2084 10.1466 98.1711 10.3333H95.4644C95.5267 9.73597 95.6884 9.2382 95.9498 8.83997C96.2236 8.42931 96.5658 8.09953 96.9764 7.85064C97.3871 7.60175 97.8413 7.42753 98.3391 7.32797C98.8493 7.21597 99.372 7.15997 99.9071 7.15997C100.206 7.15997 100.511 7.17864 100.822 7.21597C101.133 7.24086 101.438 7.30308 101.736 7.40264C102.035 7.48975 102.315 7.6142 102.576 7.77597C102.85 7.92531 103.105 8.12442 103.342 8.37331C103.765 8.85864 104.026 9.41864 104.126 10.0533C104.238 10.6755 104.288 11.2853 104.275 11.8826V17.2026H101.867L101.811 15.9893ZM101.718 12.8533H99.7951C99.6084 12.8533 99.3969 12.872 99.1604 12.9093C98.924 12.9466 98.7187 13.0151 98.5444 13.1146C98.3702 13.2142 98.2209 13.3449 98.0964 13.5066C97.9844 13.6684 97.9284 13.8675 97.9284 14.104C97.9284 14.3031 97.9658 14.4773 98.0404 14.6266C98.1276 14.776 98.2333 14.9004 98.3578 15C98.4947 15.0995 98.6564 15.1804 98.8431 15.2426C99.0298 15.2924 99.2164 15.3173 99.4031 15.3173C99.764 15.3298 100.1 15.2675 100.411 15.1306C100.735 14.9938 101.015 14.8009 101.251 14.552C101.4 14.3529 101.512 14.1289 101.587 13.88C101.674 13.6186 101.718 13.2764 101.718 12.8533Z" fill="#858892"/>
<path d="M93.9381 9.26929L89.1595 14.9066H93.9381V17.2026H85.7248V15.28L90.4661 9.64263H85.7248V7.3653H93.9381V9.26929Z" fill="#858892"/>
<path d="M82.5598 2.79199C83.0451 2.79199 83.4371 2.9351 83.7358 3.22133C84.0345 3.50755 84.1838 3.8871 84.1838 4.35999C84.1838 4.85777 84.0345 5.24977 83.7358 5.53599C83.4371 5.80977 83.0451 5.94666 82.5598 5.94666C82.0869 5.94666 81.6949 5.80977 81.3838 5.53599C81.0851 5.24977 80.9358 4.85777 80.9358 4.35999C80.9358 3.8871 81.0851 3.50755 81.3838 3.22133C81.6949 2.9351 82.0869 2.79199 82.5598 2.79199ZM83.8851 17.2027H81.2531V7.36533H83.8851V17.2027Z" fill="#858892"/>
<path d="M72.3247 8.61598C73.1212 7.65776 74.1043 7.17242 75.2741 7.15998C75.9087 7.14753 76.4687 7.25331 76.9541 7.47731C77.4394 7.68887 77.8314 7.98131 78.1301 8.35465C78.491 8.7902 78.7399 9.30042 78.8767 9.88531C79.0136 10.4578 79.0821 11.0986 79.0821 11.808V17.2026H76.4314V12.0133C76.4314 11.6649 76.3941 11.3351 76.3194 11.024C76.2572 10.7004 76.1452 10.4266 75.9834 10.2026C75.8216 9.9662 75.6039 9.79198 75.3301 9.67998C75.0687 9.56798 74.7701 9.51198 74.4341 9.51198C74.011 9.52442 73.6501 9.61776 73.3514 9.79198C73.0652 9.9662 72.8474 10.1902 72.6981 10.464C72.5487 10.7253 72.443 11.024 72.3807 11.36C72.331 11.6835 72.3061 12.0133 72.3061 12.3493V17.2026H69.6741V7.36531H72.1941L72.3247 8.61598Z" fill="#858892"/>
<path d="M65.1522 15.9893C64.7789 16.4871 64.3247 16.8418 63.7896 17.0533C63.2545 17.2649 62.6322 17.3644 61.9229 17.352C61.0145 17.3271 60.2553 17.072 59.6456 16.5866C59.322 16.3129 59.0669 15.9893 58.8802 15.616C58.706 15.2302 58.6189 14.776 58.6189 14.2533C58.6313 13.7182 58.7496 13.2453 58.9736 12.8346C59.21 12.4115 59.5647 12.0631 60.0376 11.7893C60.4358 11.5778 60.8838 11.4284 61.3816 11.3413C61.8918 11.2542 62.4456 11.2106 63.0429 11.2106H65.0589C65.0962 10.6009 64.9531 10.1466 64.6296 9.84797C64.3185 9.53686 63.8767 9.37508 63.3042 9.36264C63.1176 9.36264 62.9247 9.37508 62.7256 9.39997C62.5265 9.42486 62.3398 9.47464 62.1656 9.54931C62.0038 9.62397 61.8607 9.72975 61.7362 9.86664C61.6242 9.99108 61.5496 10.1466 61.5122 10.3333H58.8056C58.8678 9.73597 59.0296 9.2382 59.2909 8.83997C59.5647 8.42931 59.9069 8.09953 60.3176 7.85064C60.7282 7.60175 61.1825 7.42753 61.6802 7.32797C62.1905 7.21597 62.7131 7.15997 63.2482 7.15997C63.5469 7.15997 63.8518 7.17864 64.1629 7.21597C64.474 7.24086 64.7789 7.30308 65.0776 7.40264C65.3762 7.48975 65.6562 7.6142 65.9176 7.77597C66.1913 7.92531 66.4465 8.12442 66.6829 8.37331C67.106 8.85864 67.3673 9.41864 67.4669 10.0533C67.5789 10.6755 67.6287 11.2853 67.6162 11.8826V17.2026H65.2082L65.1522 15.9893ZM65.0589 12.8533H63.1362C62.9496 12.8533 62.738 12.872 62.5016 12.9093C62.2651 12.9466 62.0598 13.0151 61.8856 13.1146C61.7113 13.2142 61.562 13.3449 61.4376 13.5066C61.3256 13.6684 61.2696 13.8675 61.2696 14.104C61.2696 14.3031 61.3069 14.4773 61.3816 14.6266C61.4687 14.776 61.5745 14.9004 61.6989 15C61.8358 15.0995 61.9976 15.1804 62.1842 15.2426C62.3709 15.2924 62.5576 15.3173 62.7442 15.3173C63.1051 15.3298 63.4411 15.2675 63.7522 15.1306C64.0758 14.9938 64.3558 14.8009 64.5922 14.552C64.7416 14.3529 64.8536 14.1289 64.9282 13.88C65.0153 13.6186 65.0589 13.2764 65.0589 12.8533Z" fill="#858892"/>
<path d="M54.2388 16.1947C53.8655 16.6178 53.4175 16.9164 52.8948 17.0907C52.3721 17.2649 51.8059 17.352 51.1961 17.352C50.5864 17.352 49.989 17.2587 49.4041 17.072C48.8317 16.8729 48.3339 16.5555 47.9108 16.12C47.4379 15.6222 47.1081 15.0498 46.9215 14.4027C46.7348 13.7555 46.6415 13.0898 46.6415 12.4053C46.6415 10.7875 47.0895 9.49332 47.9855 8.52266C48.3713 8.09955 48.869 7.76977 49.4788 7.53332C50.101 7.29688 50.7668 7.18488 51.4761 7.19732C51.9366 7.17244 52.4344 7.25332 52.9695 7.43999C53.5046 7.62666 53.965 7.93777 54.3508 8.37332L54.6308 7.36532H56.9081V16.5867C56.9081 16.9849 56.8833 17.3769 56.8335 17.7627C56.7961 18.1609 56.7277 18.5404 56.6281 18.9013C56.5286 19.2747 56.3793 19.6293 56.1801 19.9653C55.9561 20.376 55.6824 20.7244 55.3588 21.0107C55.0477 21.2969 54.6993 21.5333 54.3135 21.72C53.9277 21.9191 53.517 22.0622 53.0815 22.1493C52.6459 22.2364 52.2041 22.28 51.7561 22.28C51.1837 22.28 50.6361 22.2115 50.1135 22.0747C49.5908 21.9502 49.1117 21.7387 48.6761 21.44C48.253 21.1538 47.8984 20.7867 47.6121 20.3387C47.3384 19.8907 47.1579 19.3555 47.0708 18.7333H49.8708C49.9206 19.032 50.1197 19.2995 50.4681 19.536C50.8166 19.7724 51.2397 19.8907 51.7375 19.8907C52.2726 19.8907 52.7081 19.7849 53.0441 19.5733C53.3926 19.3618 53.6539 19.0818 53.8281 18.7333C54.0024 18.3849 54.1144 17.9867 54.1641 17.5387C54.2139 17.0907 54.2388 16.6427 54.2388 16.1947ZM51.7935 15.0187C52.2041 15.0187 52.565 14.944 52.8761 14.7947C53.1997 14.6453 53.461 14.4462 53.6601 14.1973C53.8593 13.936 54.0086 13.6373 54.1081 13.3013C54.2077 12.9529 54.2575 12.5858 54.2575 12.2C54.2575 11.4284 54.0397 10.7938 53.6041 10.296C53.181 9.78577 52.5713 9.52444 51.7748 9.51199C51.3641 9.51199 50.997 9.58666 50.6735 9.73599C50.3624 9.88532 50.101 10.0844 49.8895 10.3333C49.6904 10.5822 49.541 10.8747 49.4415 11.2107C49.3419 11.5467 49.2921 11.9075 49.2921 12.2933C49.2921 12.704 49.3419 13.0773 49.4415 13.4133C49.5535 13.7369 49.7153 14.0231 49.9268 14.272C50.1384 14.5084 50.3997 14.6951 50.7108 14.832C51.0219 14.9564 51.3828 15.0187 51.7935 15.0187Z" fill="#858892"/>
<path d="M42.0991 8.59732C42.4973 8.12443 42.9204 7.76976 43.3684 7.53332C43.8288 7.29687 44.3764 7.17865 45.0111 7.17865C45.1728 7.17865 45.3284 7.18487 45.4777 7.19732C45.6271 7.20976 45.764 7.22843 45.8884 7.25332V9.67998C45.6022 9.67998 45.3097 9.68621 45.0111 9.69865C44.7248 9.69865 44.4511 9.72354 44.1897 9.77332C43.9284 9.82309 43.6733 9.90398 43.4244 10.016C43.188 10.1155 42.9764 10.2649 42.7897 10.464C42.5035 10.7875 42.3231 11.136 42.2484 11.5093C42.1862 11.8826 42.1551 12.3058 42.1551 12.7786V17.2027H39.5231V7.36532H41.9497L42.0991 8.59732Z" fill="#858892"/>
<path d="M32.849 17.352C31.2561 17.352 30.0303 16.904 29.1717 16.008C28.313 15.0995 27.8837 13.8426 27.8837 12.2373C27.8837 11.4658 27.9957 10.7689 28.2197 10.1466C28.4561 9.51197 28.7797 8.97064 29.1903 8.52264C29.6134 8.07464 30.1299 7.73864 30.7397 7.51464C31.3619 7.2782 32.065 7.15997 32.849 7.15997C33.6206 7.15997 34.3112 7.2782 34.921 7.51464C35.5432 7.73864 36.0659 8.07464 36.489 8.52264C36.9246 8.97064 37.2543 9.51197 37.4783 10.1466C37.7148 10.7689 37.833 11.4658 37.833 12.2373C37.833 13.8551 37.3974 15.112 36.5263 16.008C35.6677 16.904 34.4419 17.352 32.849 17.352ZM32.849 9.51197C32.0401 9.51197 31.4428 9.77331 31.057 10.296C30.6712 10.8186 30.4783 11.472 30.4783 12.256C30.4783 13.0524 30.6712 13.712 31.057 14.2346C31.4428 14.7573 32.0401 15.0186 32.849 15.0186C33.6579 15.0186 34.249 14.7573 34.6223 14.2346C34.9957 13.712 35.1823 13.0524 35.1823 12.256C35.1823 11.472 34.9957 10.8186 34.6223 10.296C34.249 9.77331 33.6579 9.51197 32.849 9.51197Z" fill="#858892"/>
<path d="M9.89087 2.34568C9.89087 1.57851 9.26579 0.946331 8.50661 1.05668C7.71895 1.17117 6.94675 1.38319 6.2081 1.68915C5.04052 2.17278 3.97963 2.88164 3.086 3.77527C2.19237 4.6689 1.48351 5.72979 0.999882 6.89737C0.516254 8.06495 0.267333 9.31636 0.267333 10.5801C0.267333 11.8439 0.516254 13.0953 0.999882 14.2629C1.48351 15.4305 2.19237 16.4914 3.086 17.385C3.97963 18.2786 5.04052 18.9875 6.2081 19.4711C7.37568 19.9548 8.62709 20.2037 9.89087 20.2037L9.89087 15.5844C9.2337 15.5844 8.58297 15.4549 7.97583 15.2035C7.36869 14.952 6.81703 14.5834 6.35234 14.1187C5.88765 13.654 5.51904 13.1023 5.26756 12.4952C5.01607 11.888 4.88663 11.2373 4.88663 10.5801C4.88663 9.92298 5.01607 9.27224 5.26756 8.6651C5.51904 8.05796 5.88765 7.5063 6.35234 7.04161C6.81703 6.57692 7.36869 6.20831 7.97583 5.95683C8.15365 5.88317 8.3352 5.81999 8.51956 5.76746C9.25736 5.55723 9.89087 4.95399 9.89087 4.18683L9.89087 2.34568Z" fill="#858892"/>
<path d="M17.9958 10.5801C18.763 10.5801 19.3952 11.2052 19.2848 11.9644C19.1703 12.7521 18.9583 13.5243 18.6523 14.2629C18.1687 15.4305 17.4598 16.4914 16.5662 17.385C15.6726 18.2786 14.6117 18.9875 13.4441 19.4711C12.2765 19.9548 11.0251 20.2037 9.76135 20.2037L9.76135 15.5844C10.4185 15.5844 11.0693 15.4549 11.6764 15.2035C12.2835 14.952 12.8352 14.5834 13.2999 14.1187C13.7646 13.654 14.1332 13.1023 14.3847 12.4952C14.4583 12.3174 14.5215 12.1358 14.574 11.9514C14.7843 11.2137 15.3875 10.5801 16.1547 10.5801L17.9958 10.5801Z" fill="#858892"/>
<path d="M19.619 0.960938C20.3861 0.960938 21.0183 1.58602 20.908 2.3452C20.7935 3.13286 20.5815 3.90506 20.2755 4.64371C19.7919 5.81129 19.083 6.87218 18.1894 7.76581C17.2958 8.65944 16.2349 9.3683 15.0673 9.85193C14.3286 10.1579 13.5564 10.3699 12.7688 10.4844C12.0096 10.5948 11.3845 9.96257 11.3845 9.19541L11.3845 7.35425C11.3845 6.58709 12.018 5.98385 12.7558 5.77362C12.9402 5.72109 13.1217 5.65791 13.2996 5.58425C13.9067 5.33277 14.4584 4.96416 14.9231 4.49947C15.3877 4.03478 15.7563 3.48312 16.0078 2.87598C16.0815 2.69816 16.1447 2.51661 16.1972 2.33225C16.4074 1.59445 17.0107 0.960939 17.7778 0.960938L19.619 0.960938Z" fill="#858892"/>
</svg>
