<svg width="41" height="41" viewBox="0 0 41 41" fill="none" xmlns="http://www.w3.org/2000/svg">
<rect x="0.590118" y="0.650391" width="40" height="40" rx="20" fill="#FF0000"/>
<path d="M19.6118 10.7598C16.3652 11.1312 13.1301 13.8224 12.9966 17.6668C12.9127 20.014 13.5631 21.775 15.7434 22.2695C16.6895 20.5593 15.4382 20.1821 15.2436 18.945C14.4444 13.8752 20.9509 10.4178 24.3558 13.9573C26.7116 16.4081 25.1608 23.9483 21.361 23.1646C17.7215 22.416 23.1426 16.414 20.2375 15.2355C17.876 14.2778 16.6209 18.1652 17.7406 20.0961C17.0844 23.4167 15.6709 26.5458 16.2432 30.7107C18.0992 29.3308 18.7248 26.6884 19.238 23.9327C20.1707 24.5131 20.6686 25.1171 21.8589 25.2109C26.248 25.5588 28.6992 20.7216 28.1002 16.2596C27.568 12.3038 23.7149 10.2908 19.6118 10.7598Z" fill="white"/>
</svg>
