<svg width="32" height="33" viewBox="0 0 32 33" fill="none" xmlns="http://www.w3.org/2000/svg">
<rect y="0.582031" width="32" height="32" rx="16" fill="#FF4500"/>
<path d="M23.9998 16.7289C24.0022 16.892 23.9818 17.0548 23.9386 17.2122C23.8953 17.3697 23.8299 17.5206 23.744 17.6599C23.6584 17.7992 23.5533 17.926 23.432 18.0364C23.3107 18.1468 23.1743 18.2397 23.0269 18.3123C23.0302 18.3557 23.0329 18.3995 23.0344 18.4432C23.038 18.5305 23.038 18.6179 23.0344 18.7052C23.0329 18.7489 23.0302 18.7927 23.0269 18.8361C23.0269 21.5029 19.8919 23.6697 16.0243 23.6697C12.1566 23.6697 9.02162 21.5029 9.02162 18.8361C9.01831 18.7927 9.01561 18.7489 9.01411 18.7052C9.01049 18.6179 9.01049 18.5305 9.01411 18.4432C9.01561 18.3995 9.01831 18.3557 9.02162 18.3123C8.79062 18.207 8.58546 18.0533 8.42032 17.8617C8.25519 17.6701 8.13402 17.4453 8.06521 17.2027C7.99651 16.96 7.98188 16.7054 8.02232 16.4566C8.06277 16.2077 8.15732 15.9706 8.29943 15.7616C8.44142 15.5526 8.62758 15.3767 8.845 15.2462C9.06242 15.1156 9.30589 15.0335 9.55853 15.0056C9.81119 14.9775 10.067 15.0042 10.3082 15.0839C10.5494 15.1636 10.7703 15.2942 10.9554 15.4669C11.2992 15.236 11.6594 15.03 12.0332 14.8505C12.407 14.6713 12.7935 14.519 13.1896 14.3951C13.5856 14.2713 13.9904 14.1764 14.4003 14.1106C14.8102 14.0448 15.2246 14.0088 15.6399 14.0026L16.5287 9.87142C16.5386 9.8235 16.5582 9.77826 16.5861 9.73778C16.6137 9.6976 16.6494 9.66308 16.6906 9.63659C16.732 9.6101 16.7783 9.59194 16.8269 9.58302C16.8753 9.57438 16.9251 9.57528 16.9732 9.58569L19.9159 10.1691C20.2129 9.66338 20.8363 9.4467 21.3867 9.65742C21.9372 9.86815 22.2519 10.4441 22.1287 11.0161C22.0059 11.5882 21.4816 11.987 20.8925 11.9569C20.303 11.9269 19.8229 11.4769 19.7598 10.8953L17.1894 10.3595L16.4086 14.074C16.8188 14.0826 17.2281 14.1207 17.6329 14.1877C18.4435 14.3216 19.2303 14.5708 19.9691 14.9276C20.3381 15.1056 20.6936 15.3097 21.033 15.5383C21.277 15.3061 21.5836 15.1489 21.9158 15.0856C22.248 15.0222 22.5917 15.0553 22.9053 15.1812C23.2189 15.307 23.4891 15.52 23.6833 15.7946C23.8776 16.0692 23.9875 16.3937 23.9998 16.7289ZM12.0797 18.3751C12.1404 18.5194 12.2287 18.6507 12.3404 18.7611C12.4518 18.8718 12.5842 18.9593 12.7298 19.0195C12.8756 19.0792 13.0318 19.11 13.1896 19.1099C13.6754 19.1099 14.1132 18.8197 14.2994 18.3751C14.4853 17.9301 14.3823 17.4182 14.0388 17.0777C13.6952 16.7372 13.1788 16.6351 12.7298 16.8194C12.2812 17.0039 11.9884 17.4378 11.9884 17.9194C11.9884 18.0757 12.0194 18.2304 12.0797 18.3751ZM18.9592 21.2329C19.0208 21.1734 19.0559 21.0922 19.0571 21.007C19.0583 20.9216 19.025 20.8395 18.9649 20.7785C18.9049 20.7174 18.8229 20.6826 18.737 20.6814C18.6508 20.6802 18.568 20.7133 18.4986 20.7648C18.318 20.8932 18.1267 21.0062 17.9269 21.1026C17.727 21.199 17.5192 21.2786 17.3059 21.3404C17.0927 21.402 16.8744 21.4458 16.6536 21.4711C16.4326 21.4964 16.2101 21.5029 15.9882 21.491C15.7666 21.5008 15.5444 21.4919 15.3243 21.4645C15.1041 21.4374 14.8867 21.3916 14.6745 21.3276C14.4619 21.2639 14.2556 21.1824 14.0571 21.0841C13.8586 20.9859 13.6688 20.871 13.4899 20.741C13.4277 20.6904 13.3487 20.6645 13.2682 20.6683C13.1878 20.6722 13.1118 20.7058 13.0547 20.7621C12.998 20.8186 12.9641 20.8939 12.9601 20.9737C12.9562 21.0535 12.9824 21.1318 13.0334 21.1934C13.2445 21.3511 13.4688 21.4904 13.704 21.61C13.9391 21.7297 14.1844 21.8288 14.4366 21.9068C14.6889 21.9848 14.9474 22.041 15.2096 22.0752C15.4717 22.1092 15.7363 22.1208 16.0002 22.1101C16.2642 22.1208 16.5287 22.1092 16.7909 22.0752C17.3159 22.0068 17.8252 21.8494 18.2965 21.61C18.5316 21.4904 18.7559 21.3511 18.967 21.1934L18.9592 21.2329ZM18.7388 19.2052C18.9016 19.207 19.0631 19.1757 19.2136 19.1138C19.364 19.0516 19.5 18.9599 19.6136 18.8441C19.7271 18.7284 19.8153 18.5909 19.8736 18.44C19.9319 18.2892 19.9586 18.1283 19.952 17.967C19.952 17.4855 19.6592 17.0515 19.2106 16.867C18.7616 16.6827 18.2452 16.7848 17.9016 17.1253C17.5581 17.4658 17.4551 17.9777 17.641 18.4227C17.8272 18.8674 18.265 19.1576 18.7508 19.1576L18.7388 19.2052Z" fill="white"/>
</svg>
