<svg width="32" height="33" viewBox="0 0 32 33" fill="none" xmlns="http://www.w3.org/2000/svg">
<rect y="0.582031" width="32" height="32" rx="16" fill="#00B7F0"/>
<path d="M17.4711 12.9471C17.4711 14.2893 16.9355 15.5766 15.9822 16.5257C15.0289 17.4748 13.736 18.008 12.3878 18.008C11.0396 18.008 9.74663 17.4748 8.79332 16.5257C7.84001 15.5766 7.30444 14.2893 7.30444 12.9471C7.30444 11.6049 7.84001 10.3176 8.79332 9.36852C9.74663 8.41943 11.0396 7.88623 12.3878 7.88623C13.736 7.88623 15.0289 8.41943 15.9822 9.36852C16.9355 10.3176 17.4711 11.6049 17.4711 12.9471Z" fill="white"/>
<path d="M24.5552 20.2145C24.5552 20.8793 24.4236 21.5376 24.1681 22.1518C23.9125 22.7661 23.538 23.3242 23.0658 23.7943C22.5936 24.2644 22.033 24.6373 21.4161 24.8917C20.7991 25.1461 20.1379 25.2771 19.4701 25.2771C18.1214 25.2771 16.828 24.7437 15.8744 23.7943C14.9208 22.8448 14.385 21.5572 14.385 20.2145C14.385 18.8718 14.9208 17.5841 15.8744 16.6347C16.828 15.6852 18.1214 15.1519 19.4701 15.1519C20.1379 15.1519 20.7991 15.2828 21.4161 15.5372C22.033 15.7916 22.5936 16.1646 23.0658 16.6347C23.538 17.1048 23.9125 17.6629 24.1681 18.2771C24.4236 18.8913 24.5552 19.5496 24.5552 20.2145Z" fill="white"/>
<path opacity="0.05" fill-rule="evenodd" clip-rule="evenodd" d="M7.323 13.3804C7.40196 14.3366 7.75055 15.2509 8.32838 16.0173C8.90622 16.7837 9.68964 17.3709 10.5879 17.7108C11.4861 18.0507 12.4624 18.1295 13.4036 17.9379C14.3447 17.7463 15.2123 17.2922 15.9057 16.6282C16.5991 15.9643 17.09 15.1177 17.3215 14.1865C17.553 13.2553 17.5156 12.2777 17.2136 11.3669C16.9116 10.4561 16.3574 9.64936 15.6153 9.04025C14.8732 8.43114 13.9734 8.04456 13.0203 7.92529C11.7262 8.3577 10.5441 9.07117 9.55902 10.0144C8.57391 10.9576 7.81027 12.1072 7.323 13.3804Z" fill="white"/>
<path opacity="0.05" fill-rule="evenodd" clip-rule="evenodd" d="M24.5421 19.8513C24.4757 18.8834 24.1332 17.9548 23.5551 17.1752C22.9769 16.3957 22.1874 15.7979 21.2798 15.4525C20.3722 15.107 19.3846 15.0285 18.4338 15.2261C17.4829 15.4237 16.6086 15.8893 15.9143 16.5676C15.22 17.246 14.7347 18.1087 14.5158 19.0539C14.2969 19.9991 14.3537 20.9871 14.6792 21.9011C15.0048 22.8151 15.5857 23.6169 16.3531 24.2115C17.1205 24.8061 18.0423 25.1687 19.0096 25.2565C20.2683 24.8088 21.4148 24.0936 22.37 23.1603C23.3252 22.227 24.0662 21.0979 24.5421 19.8507V19.8513Z" fill="white"/>
<path opacity="0.1" fill-rule="evenodd" clip-rule="evenodd" d="M7.56104 14.5372C7.82804 15.3531 8.29783 16.088 8.92648 16.6732C9.55512 17.2584 10.3221 17.6748 11.1556 17.8834C11.9892 18.092 12.8621 18.0861 13.6927 17.8661C14.5233 17.6461 15.2845 17.2193 15.9051 16.6255C16.5257 16.0318 16.9854 15.2906 17.2412 14.4711C17.497 13.6517 17.5406 12.7808 17.3678 11.94C17.1951 11.0991 16.8117 10.3158 16.2535 9.66319C15.6952 9.01061 14.9804 8.51011 14.1759 8.2085C12.5905 8.53843 11.1298 9.30665 9.9602 10.4256C8.79065 11.5446 7.95935 12.9692 7.56104 14.5372Z" fill="white"/>
<path opacity="0.1" fill-rule="evenodd" clip-rule="evenodd" d="M24.3113 18.6621C24.0482 17.8366 23.578 17.092 22.9455 16.4993C22.3129 15.9065 21.5391 15.4854 20.6975 15.2758C19.856 15.0662 18.9747 15.0752 18.1377 15.302C17.3006 15.5287 16.5355 15.9657 15.9153 16.5712C15.295 17.1768 14.8402 17.9308 14.5941 18.7616C14.3481 19.5923 14.3189 20.4721 14.5094 21.3173C14.6999 22.1625 15.1038 22.9449 15.6825 23.5902C16.2613 24.2354 16.9957 24.7219 17.816 25.0035C19.3811 24.6527 20.8176 23.8737 21.9647 22.7537C23.1119 21.6338 23.9243 20.217 24.3113 18.6621Z" fill="white"/>
<path opacity="0.1" fill-rule="evenodd" clip-rule="evenodd" d="M7.7478 15.0174C8.07855 15.7619 8.58383 16.4158 9.22094 16.9241C9.85806 17.4323 10.6083 17.7799 11.4082 17.9375C12.2082 18.095 13.0344 18.0579 13.8169 17.8293C14.5995 17.6007 15.3155 17.1872 15.9044 16.6239C16.4932 16.0606 16.9377 15.364 17.2003 14.5929C17.4628 13.8218 17.5356 12.999 17.4127 12.1938C17.2897 11.3887 16.9745 10.625 16.4938 9.96718C16.013 9.30937 15.3808 8.77683 14.6505 8.41455C12.9617 8.67713 11.3943 9.45108 10.1598 10.6319C8.92542 11.8127 8.08351 13.3435 7.7478 15.0174Z" fill="white"/>
<path opacity="0.1" fill-rule="evenodd" clip-rule="evenodd" d="M24.1239 18.1724C23.7948 17.4193 23.2877 16.7573 22.646 16.2432C22.0043 15.7291 21.2473 15.3783 20.4399 15.2209C19.6326 15.0636 18.7991 15.1043 18.011 15.3397C17.2228 15.575 16.5037 15.998 15.9154 16.5722C15.327 17.1464 14.887 17.8547 14.6331 18.6363C14.3792 19.4178 14.3191 20.2493 14.4578 21.0592C14.5966 21.8691 14.9301 22.6332 15.4297 23.2859C15.9294 23.9387 16.5801 24.4605 17.3262 24.8066C19.0002 24.5225 20.5477 23.7352 21.7623 22.5499C22.9768 21.3646 23.8006 19.8375 24.1239 18.1724Z" fill="white"/>
<path d="M23.9822 16.6197C23.9822 17.6723 23.7739 18.7146 23.3693 19.6871C22.9647 20.6596 22.3716 21.5433 21.624 22.2876C20.8764 23.0319 19.9888 23.6223 19.012 24.0252C18.0352 24.428 16.9882 24.6353 15.9309 24.6353C14.8736 24.6353 13.8266 24.428 12.8498 24.0252C11.873 23.6223 10.9854 23.0319 10.2378 22.2876C9.49017 21.5433 8.89712 20.6596 8.4925 19.6871C8.08789 18.7146 7.87964 17.6723 7.87964 16.6197C7.87964 15.567 8.08789 14.5247 8.4925 13.5522C8.89712 12.5797 9.49017 11.6961 10.2378 10.9517C10.9854 10.2074 11.873 9.61698 12.8498 9.21416C13.8266 8.81133 14.8736 8.604 15.9309 8.604C16.9882 8.604 18.0352 8.81133 19.012 9.21416C19.9888 9.61698 20.8764 10.2074 21.624 10.9517C22.3716 11.6961 22.9647 12.5797 23.3693 13.5522C23.7739 14.5247 23.9822 15.567 23.9822 16.6197Z" fill="white"/>
<path fill-rule="evenodd" clip-rule="evenodd" d="M13.667 16.3415C13.3416 16.1276 13.0701 15.8416 12.8737 15.5056C12.684 15.1507 12.5903 14.7524 12.6021 14.3502C12.5877 13.8399 12.7621 13.3421 13.0919 12.952C13.4346 12.5603 13.8752 12.2662 14.3687 12.0998C14.9054 11.9104 15.4709 11.8153 16.0401 11.8186C16.4125 11.8151 16.7845 11.8436 17.152 11.9039C17.4151 11.9444 17.6735 12.0111 17.9233 12.1027C18.1528 12.1803 18.3599 12.3124 18.5269 12.4876C18.6499 12.6318 18.7162 12.8159 18.7132 13.0053C18.7176 13.1037 18.7025 13.2021 18.6689 13.2947C18.6352 13.3873 18.5836 13.4723 18.517 13.545C18.454 13.612 18.3776 13.6649 18.2926 13.7003C18.2077 13.7357 18.1163 13.7527 18.0243 13.7502C17.8978 13.7492 17.7729 13.7211 17.6581 13.6679C17.3752 13.5414 17.0837 13.4349 16.7858 13.3491C16.5117 13.2769 16.229 13.2418 15.9455 13.2447C15.5759 13.2312 15.2103 13.3246 14.8927 13.5137C14.7587 13.5951 14.649 13.7109 14.5751 13.8491C14.5011 13.9872 14.4657 14.1427 14.4725 14.2992C14.4706 14.5047 14.5489 14.7029 14.6907 14.8517C14.8594 15.0265 15.0586 15.1689 15.2786 15.272C15.5251 15.3941 15.8927 15.556 16.3813 15.7578C16.4354 15.7749 16.4882 15.796 16.5392 15.821C17.016 16.0094 17.4732 16.2441 17.9042 16.5218C18.2445 16.7435 18.5315 17.0377 18.7445 17.3833C18.9543 17.7465 19.0593 18.1606 19.0481 18.5798C19.0657 19.093 18.9184 19.5985 18.6279 20.0221C18.332 20.4233 17.9227 20.7267 17.4527 20.8934C16.8862 21.0956 16.2875 21.193 15.6861 21.181C14.8595 21.2099 14.037 21.0544 13.2782 20.7259C13.0842 20.6396 12.9141 20.5075 12.7825 20.341C12.6733 20.1884 12.6167 20.0044 12.6212 19.8169C12.6158 19.718 12.6319 19.6191 12.6685 19.527C12.7051 19.4349 12.7612 19.3519 12.833 19.2836C12.9836 19.1518 13.1791 19.0829 13.3791 19.0911C13.602 19.0941 13.8209 19.1504 14.0175 19.2552C14.2621 19.3773 14.4549 19.4689 14.5962 19.53C14.7574 19.5974 14.9245 19.6502 15.0953 19.6876C15.3058 19.7338 15.521 19.7559 15.7365 19.7537C16.1178 19.7809 16.4972 19.6799 16.8143 19.4668C16.933 19.374 17.0278 19.2543 17.091 19.1176C17.1542 18.9809 17.1839 18.8311 17.1776 18.6807C17.1779 18.4674 17.0965 18.262 16.9501 18.1068C16.7565 17.9072 16.53 17.7424 16.2803 17.6198C15.9851 17.4644 15.57 17.2751 15.0349 17.0517C14.5563 16.8612 14.0981 16.6233 13.667 16.3415Z" fill="#00B7F0"/>
</svg>
