<svg width="32" height="33" viewBox="0 0 32 33" fill="none" xmlns="http://www.w3.org/2000/svg">
<rect y="0.582031" width="32" height="32" rx="16" fill="#10BC4C"/>
<path d="M24.0096 8.61621L8 8.61621L8 24.64H24.0096V8.61621Z" fill="#10BC4C"/>
<path fill-rule="evenodd" clip-rule="evenodd" d="M16.0048 8.61621C11.6022 8.61621 8 12.2216 8 16.6281C8 21.0347 11.6022 24.64 16.0048 24.64C20.4074 24.64 24.0096 21.0347 24.0096 16.6281C24.0096 12.2216 20.4475 8.61621 16.0048 8.61621ZM19.687 20.1934C19.5269 20.4338 19.2467 20.5139 19.0066 20.3537C17.1255 19.1919 14.7641 18.9516 11.9624 19.5925C11.6822 19.6727 11.4421 19.4724 11.362 19.232C11.282 18.9516 11.4821 18.7112 11.7222 18.6311C14.7641 17.9501 17.4056 18.2305 19.4869 19.5124C19.7671 19.6326 19.8071 19.9531 19.687 20.1934ZM20.6476 17.9902C20.4475 18.2706 20.0873 18.3907 19.8071 18.1905C17.6458 16.8685 14.3638 16.4679 11.8423 17.2691C11.5221 17.3492 11.1619 17.189 11.0818 16.8685C11.0018 16.548 11.1619 16.1875 11.4821 16.1074C14.4038 15.226 18.006 15.6667 20.4875 17.189C20.7276 17.3091 20.8477 17.7097 20.6476 17.9902ZM20.7276 15.7468C18.1661 14.2246 13.8835 14.0643 11.4421 14.8254C11.0418 14.9456 10.6416 14.7053 10.5215 14.3447C10.4014 13.9441 10.6416 13.5435 11.0018 13.4234C13.8435 12.5821 18.5263 12.7423 21.4881 14.505C21.8483 14.7053 21.9684 15.186 21.7683 15.5465C21.5681 15.8269 21.0879 15.9471 20.7276 15.7468Z" fill="white"/>
</svg>
