<svg width="93" height="23" viewBox="0 0 93 23" fill="none" xmlns="http://www.w3.org/2000/svg">
<path d="M87.2223 6.93536C89.7236 6.93536 91.777 9.08203 91.777 11.8634C91.777 14.6447 89.7236 16.7914 87.2223 16.7914C85.8596 16.7914 84.8703 16.2874 84.1983 15.4287V20.2634H81.7903V7.1967H84.1983V8.29803C84.8703 7.43936 85.8596 6.93536 87.2223 6.93536ZM86.7743 14.4954C88.2676 14.4954 89.3689 13.4314 89.3689 11.8634C89.3689 10.2954 88.2676 9.23136 86.7743 9.23136C85.2996 9.23136 84.1983 10.2954 84.1983 11.8634C84.1983 13.4314 85.2996 14.4954 86.7743 14.4954Z" fill="#858892"/>
<path d="M77.1769 7.19672H79.5849V16.53H77.1769V15.4847C76.6169 16.3247 75.6462 16.7914 74.3956 16.7914C72.4169 16.7914 70.8676 15.41 70.8676 12.9274V7.19672H73.2756V12.6287C73.2756 13.898 74.0409 14.5514 75.1236 14.5514C76.2996 14.5514 77.1769 13.8607 77.1769 12.2367V7.19672Z" fill="#858892"/>
<path d="M69.1732 9.51137H67.0639V13.394C67.0639 14.402 67.7919 14.4207 69.1732 14.346V16.53C65.7945 16.9034 64.6559 15.914 64.6559 13.394V9.51137H63.0319V7.19671H64.6559V5.31137L67.0639 4.58337V7.19671H69.1732V9.51137Z" fill="#858892"/>
<path d="M59.3337 8.80207C59.819 7.53274 60.995 7.01007 62.171 7.01007V9.69807C60.9203 9.54874 59.3337 10.1087 59.3337 12.0687V16.5301H56.9257V7.19674H59.3337V8.80207Z" fill="#858892"/>
<path d="M52.3342 7.1967H54.7422V16.53H52.3342V15.4287C51.6622 16.2687 50.6542 16.7914 49.2915 16.7914C46.8088 16.7914 44.7555 14.6447 44.7555 11.8634C44.7555 9.08203 46.8088 6.93536 49.2915 6.93536C50.6542 6.93536 51.6622 7.45803 52.3342 8.29803V7.1967ZM49.7395 14.4954C51.2328 14.4954 52.3342 13.4314 52.3342 11.8634C52.3342 10.2954 51.2328 9.23136 49.7395 9.23136C48.2648 9.23136 47.1635 10.2954 47.1635 11.8634C47.1635 13.4314 48.2648 14.4954 49.7395 14.4954Z" fill="#858892"/>
<path d="M43.8347 9.51137H41.7254V13.394C41.7254 14.402 42.4534 14.4207 43.8347 14.346V16.53C40.456 16.9034 39.3174 15.914 39.3174 13.394V9.51137H37.6934V7.19671H39.3174V5.31137L41.7254 4.58337V7.19671H43.8347V9.51137Z" fill="#858892"/>
<path d="M32.4048 9.84736C32.4048 11.2287 37.2208 10.37 37.2208 13.8047C37.2208 15.8207 35.4662 16.7914 33.4688 16.7914C31.6022 16.7914 30.2208 16.0074 29.5488 14.57L31.6395 13.394C31.9008 14.1594 32.5355 14.6074 33.4688 14.6074C34.2342 14.6074 34.7568 14.346 34.7568 13.8047C34.7568 12.442 29.9408 13.1887 29.9408 9.90336C29.9408 7.99936 31.5648 6.93536 33.4875 6.93536C34.9995 6.93536 36.3062 7.62603 37.0342 8.91403L34.9808 10.034C34.7008 9.4367 34.1782 9.08203 33.4875 9.08203C32.8902 9.08203 32.4048 9.34336 32.4048 9.84736Z" fill="#858892"/>
<path d="M7.28802 13.4394L3.07087 17.6998C2.48491 18.2918 1.52721 18.2876 0.946489 17.6905C0.378334 17.1063 0.385688 16.1739 0.962988 15.5987L6.61703 9.96596C7.22927 9.35602 8.21916 9.35503 8.83262 9.96374L11.5076 12.618L15.9954 8.07146H12.9449C12.1511 8.07146 11.5076 7.42797 11.5076 6.63418C11.5076 5.84039 12.1511 5.1969 12.9449 5.1969H19.44C20.3078 5.1969 21.0112 5.90035 21.0112 6.7681V13.2046C21.0112 14.0308 20.3415 14.7005 19.5153 14.7005C18.6891 14.7005 18.0193 14.0308 18.0193 13.2046V10.1541L12.8147 15.3352C12.0882 16.0585 10.9169 16.0687 10.1779 15.3583L8.17022 13.4285C7.92257 13.1904 7.52968 13.1953 7.28802 13.4394Z" fill="#858892"/>
</svg>
