<svg width="53" height="53" viewBox="0 0 53 53" fill="none" xmlns="http://www.w3.org/2000/svg">
<rect x="0.171875" y="0.495117" width="52.4561" height="52.4561" rx="26.2281" fill="#34AADF"/>
<path d="M14.7652 25.7943C14.7652 25.7943 25.4373 21.2995 29.1385 19.7167C30.5574 19.0836 35.369 17.0577 35.369 17.0577C35.369 17.0577 37.5898 16.1714 37.4048 18.3239C37.343 19.2103 36.8495 22.3123 36.3561 25.6677C35.6158 30.4159 34.8138 35.6072 34.8138 35.6072C34.8138 35.6072 34.6905 37.0633 33.6418 37.3166C32.5931 37.5698 30.8658 36.4303 30.5574 36.177C30.3106 35.9871 25.9308 33.1382 24.3269 31.7454C23.8951 31.3655 23.4016 30.6059 24.3885 29.7195C26.6093 27.6303 29.2619 25.0347 30.8658 23.3887C31.6061 22.6289 32.3463 20.8563 29.2619 23.0087C24.8821 26.1109 20.5639 29.0231 20.5639 29.0231C20.5639 29.0231 19.5769 29.6562 17.7263 29.0864C15.8756 28.5167 13.7165 27.7569 13.7165 27.7569C13.7165 27.7569 12.2361 26.8073 14.7652 25.7943Z" fill="white"/>
</svg>
