<svg width="32" height="33" viewBox="0 0 32 33" fill="none" xmlns="http://www.w3.org/2000/svg">
<rect y="0.582031" width="32" height="32" rx="16" fill="black"/>
<path fill-rule="evenodd" clip-rule="evenodd" d="M19.4563 14.407C20.5281 15.1695 21.8116 15.577 23.1265 15.572V12.9637C22.868 12.9644 22.6102 12.9367 22.3578 12.8811V14.9591C21.0398 14.9614 19.7545 14.5493 18.6832 13.781V19.1455C18.68 20.0258 18.4388 20.8888 17.9852 21.643C17.5317 22.3972 16.8826 23.0145 16.107 23.4294C15.3313 23.8443 14.4579 24.0414 13.5794 23.9998C12.7008 23.9581 11.85 23.6793 11.1169 23.1928C11.795 23.8795 12.6613 24.3493 13.6063 24.5428C14.5513 24.7363 15.5324 24.6447 16.4253 24.2798C17.3183 23.9148 18.083 23.2929 18.6225 22.4927C19.1621 21.6924 19.4523 20.75 19.4563 19.7846V14.407ZM20.4075 11.7464C19.8625 11.1551 19.5281 10.4001 19.4563 9.59885V9.25977H18.7266C18.8168 9.76908 19.0131 10.2537 19.3027 10.6821C19.5923 11.1105 19.9688 11.4732 20.4075 11.7464V11.7464ZM12.8065 21.1279C12.5536 20.7969 12.3986 20.4014 12.3592 19.9866C12.3198 19.5717 12.3975 19.1542 12.5835 18.7813C12.7695 18.4085 13.0564 18.0955 13.4114 17.8778C13.7664 17.6601 14.1754 17.5466 14.5917 17.5501C14.8215 17.55 15.0501 17.5852 15.2693 17.6544V14.9591C15.013 14.9251 14.7546 14.9106 14.4961 14.9156V17.011C13.9624 16.8421 13.3847 16.8805 12.8779 17.1186C12.3712 17.3566 11.9725 17.7768 11.7612 18.2957C11.5499 18.8145 11.5415 19.3939 11.7376 19.9187C11.9337 20.4435 12.32 20.8752 12.8196 21.1279H12.8065Z" fill="#EE1D52"/>
<path fill-rule="evenodd" clip-rule="evenodd" d="M18.6827 13.7636C19.754 14.5319 21.0393 14.944 22.3573 14.9417V12.8637C21.6064 12.7048 20.9242 12.314 20.4071 11.7464C19.9683 11.4732 19.5918 11.1105 19.3022 10.6821C19.0126 10.2537 18.8164 9.76908 18.7261 9.25977L16.8064 9.25977V19.7846C16.8046 20.2504 16.6571 20.704 16.3846 21.0817C16.112 21.4594 15.7282 21.7422 15.2869 21.8903C14.8456 22.0385 14.3691 22.0447 13.9241 21.9079C13.4792 21.7712 13.0882 21.4984 12.806 21.1279C12.3589 20.9021 12.0008 20.5321 11.7895 20.0776C11.5783 19.6231 11.5262 19.1106 11.6416 18.6228C11.757 18.135 12.0333 17.7004 12.4258 17.389C12.8183 17.0776 13.3042 16.9077 13.805 16.9067C14.0348 16.9074 14.2632 16.9426 14.4826 17.011V14.9156C13.5347 14.9384 12.6141 15.2377 11.8337 15.7768C11.0533 16.3158 10.4472 17.0713 10.0897 17.9503C9.73227 18.8293 9.63901 19.7936 9.8214 20.7249C10.0038 21.6562 10.4539 22.514 11.1165 23.1928C11.8496 23.6828 12.7018 23.9645 13.5823 24.0079C14.4628 24.0514 15.3386 23.855 16.1164 23.4397C16.8942 23.0243 17.5448 22.4056 17.9991 21.6494C18.4533 20.8932 18.6941 20.0279 18.6957 19.1455L18.6827 13.7636Z" fill="white"/>
<path fill-rule="evenodd" clip-rule="evenodd" d="M22.3575 12.8635V12.3027C21.668 12.3057 20.9917 12.1127 20.4073 11.7463C20.9232 12.3155 21.6059 12.7066 22.3575 12.8635V12.8635ZM18.7264 9.25961C18.7264 9.15962 18.696 9.05529 18.683 8.9553V8.61621L16.0335 8.61621V19.1454C16.0312 19.7349 15.7953 20.2995 15.3776 20.7152C14.9598 21.1308 14.3944 21.3636 13.8053 21.3625C13.4585 21.3642 13.1162 21.2838 12.8063 21.1277C13.0885 21.4982 13.4795 21.771 13.9244 21.9078C14.3694 22.0445 14.8459 22.0384 15.2872 21.8902C15.7285 21.742 16.1123 21.4592 16.3848 21.0816C16.6574 20.7039 16.8049 20.2503 16.8066 19.7844V9.25961H18.7264ZM14.4829 14.9111V14.3155C13.3927 14.1673 12.2844 14.393 11.3387 14.9559C10.393 15.5188 9.66574 16.3857 9.27532 17.4153C8.88491 18.4448 8.85442 19.5764 9.18881 20.6256C9.5232 21.6747 10.2028 22.5796 11.1167 23.1927C10.4592 22.5122 10.0139 21.6548 9.83522 20.7252C9.65655 19.7956 9.75227 18.834 10.1107 17.958C10.4691 17.0819 11.0747 16.3293 11.8534 15.7921C12.6322 15.2549 13.5504 14.9563 14.4959 14.9328L14.4829 14.9111Z" fill="#69C9D0"/>
</svg>
