<svg width="34" height="35" viewBox="0 0 34 35" fill="none" xmlns="http://www.w3.org/2000/svg">
<rect x="0.0237732" y="0.916504" width="33.269" height="33.269" rx="16.6345" fill="#9146FF"/>
<path d="M21.1888 18.7631L18.7905 20.9882H16.3922L14.2937 22.9352V20.9882H11.5956V12.644H21.1888V18.7631Z" fill="#9146FF"/>
<path d="M12.8613 10.3193L12.138 11.0426L10.8724 19.179L14.6694 21.1679L15.2118 21.8912L18.828 20.6255L22.8058 17.5517L22.9866 14.6588L22.8058 10.5001L22.2634 10.3193H12.8613Z" fill="white"/>
<path d="M12.4238 9.74854L9.4259 12.5299V22.5429H13.0234V25.3243L16.0213 22.5429H18.4196L23.8158 17.5364V9.74854H12.4238ZM22.6166 16.9802L20.2183 19.2053H17.82L15.7215 21.1523V19.2053H13.0234V10.8611H22.6166V16.9802Z" fill="black"/>
<path d="M20.8182 12.8081H19.6191V16.1458H20.8182V12.8081Z" fill="black"/>
<path d="M17.5213 12.8081H16.3221V16.1458H17.5213V12.8081Z" fill="black"/>
</svg>
