<svg width="43" height="43" viewBox="0 0 43 43" fill="none" xmlns="http://www.w3.org/2000/svg">
<rect x="0.430817" y="0.300781" width="42" height="42" rx="21" fill="#33CCFF"/>
<path d="M31.8548 14.6517C31.1613 14.9504 30.4322 15.1584 29.6856 15.2706C30.0347 15.2107 30.5483 14.5818 30.7527 14.3273C31.0633 13.9433 31.3001 13.505 31.4509 13.0346C31.4509 12.9997 31.4858 12.9497 31.4509 12.9248C31.4333 12.9152 31.4136 12.9101 31.3935 12.9101C31.3735 12.9101 31.3538 12.9152 31.3362 12.9248C30.5255 13.3642 29.6626 13.6996 28.7681 13.923C28.7369 13.9325 28.7037 13.9334 28.6721 13.9255C28.6405 13.9176 28.6116 13.9012 28.5886 13.8781C28.5189 13.7951 28.444 13.7167 28.3642 13.6435C27.9993 13.3163 27.5854 13.0485 27.1375 12.8499C26.5329 12.6017 25.8798 12.4941 25.2276 12.5355C24.5948 12.5755 23.9769 12.7454 23.4125 13.0346C22.8567 13.3395 22.3682 13.7537 21.9764 14.2524C21.5642 14.7656 21.2667 15.3613 21.1037 15.9993C20.9694 16.6061 20.9541 17.2333 21.0588 17.8459C21.0588 17.9507 21.0588 17.9657 20.9691 17.9507C17.4137 17.4267 14.4965 16.164 12.1129 13.4538C12.0082 13.3341 11.9534 13.3341 11.8686 13.4538C10.8314 15.031 11.335 17.5265 12.6315 18.7593C12.8061 18.924 12.9856 19.0837 13.1751 19.2334C12.5806 19.1912 12.0007 19.03 11.4697 18.7593C11.3699 18.6944 11.3151 18.7293 11.3101 18.8491C11.296 19.0152 11.296 19.1821 11.3101 19.3482C11.4141 20.1441 11.7275 20.898 12.2182 21.5329C12.7088 22.1678 13.3591 22.6609 14.1026 22.9617C14.2838 23.0394 14.4727 23.098 14.6661 23.1364C14.1158 23.2448 13.5513 23.2617 12.9956 23.1863C12.8759 23.1613 12.831 23.2262 12.8759 23.341C13.6089 25.3374 15.1996 25.9463 16.3665 26.2857C16.5261 26.3107 16.6856 26.3107 16.8651 26.3506C16.8651 26.3506 16.8651 26.3506 16.8352 26.3805C16.4911 27.0094 15.0999 27.4336 14.4616 27.6533C13.2966 28.0721 12.0544 28.2322 10.8214 28.1224C10.6269 28.0925 10.5821 28.0975 10.5322 28.1224C10.4823 28.1474 10.5322 28.2023 10.587 28.2522C10.8364 28.4169 11.0857 28.5616 11.345 28.7014C12.1169 29.1228 12.933 29.4575 13.7784 29.6996C18.1567 30.9074 23.0834 30.019 26.3695 26.7499C28.9526 24.1845 29.8601 20.6459 29.8601 17.1023C29.8601 16.9675 30.0247 16.8876 30.1195 16.8178C30.7729 16.3081 31.3491 15.7063 31.8298 15.031C31.9131 14.9303 31.9558 14.8022 31.9495 14.6716C31.9495 14.5968 31.9495 14.6117 31.8548 14.6517Z" fill="white"/>
</svg>
