<svg width="32" height="33" viewBox="0 0 32 33" fill="none" xmlns="http://www.w3.org/2000/svg">
<g clip-path="url(#clip0_5_29984)">
<rect y="0.582031" width="32" height="32" rx="16" fill="#00D95F"/>
<path d="M8 23.9898L9.14796 19.7214C8.22216 18.0586 7.92802 16.1183 8.31953 14.2566C8.71103 12.3948 9.76191 10.7364 11.2793 9.58567C12.7968 8.43498 14.6789 7.86919 16.5805 7.99212C18.4821 8.11504 20.2754 8.91845 21.6315 10.2549C22.9876 11.5914 23.8155 13.3712 23.9632 15.2679C24.111 17.1645 23.5686 19.0507 22.4358 20.5804C21.3029 22.1101 19.6555 23.1806 17.7958 23.5955C15.9362 24.0104 13.989 23.7419 12.3116 22.8392L8 23.9898ZM12.5195 21.242L12.7862 21.3999C14.0011 22.1188 15.4202 22.4163 16.8222 22.246C18.2242 22.0758 19.5304 21.4473 20.5372 20.4585C21.544 19.4697 22.195 18.1762 22.3886 16.7795C22.5821 15.3828 22.3075 13.9614 21.6075 12.7368C20.9074 11.5122 19.8212 10.5532 18.5182 10.0093C17.2152 9.46532 15.7686 9.36695 14.4038 9.7295C13.0389 10.092 11.8325 10.8952 10.9726 12.0137C10.1127 13.1322 9.64754 14.5032 9.64963 15.9132C9.64849 17.0823 9.97236 18.2288 10.5852 19.2251L10.7524 19.5003L10.1106 21.8827L12.5195 21.242Z" fill="white"/>
<path fill-rule="evenodd" clip-rule="evenodd" d="M18.9916 17.0093C18.8352 16.8834 18.6522 16.7949 18.4564 16.7503C18.2606 16.7057 18.0572 16.7063 17.8617 16.7521C17.5679 16.874 17.3781 17.3342 17.1883 17.5643C17.1482 17.6195 17.0894 17.6582 17.0229 17.6731C16.9563 17.6881 16.8865 17.6783 16.8267 17.6455C15.7512 17.225 14.8497 16.4538 14.2686 15.4572C14.2191 15.395 14.1956 15.316 14.2032 15.2369C14.2108 15.1578 14.2488 15.0847 14.3093 15.033C14.521 14.8238 14.6765 14.5646 14.7613 14.2795C14.7801 13.965 14.7079 13.6518 14.5534 13.3771C14.4339 12.992 14.2065 12.6492 13.898 12.389C13.7389 12.3175 13.5626 12.2936 13.3901 12.32C13.2177 12.3464 13.0566 12.4221 12.9263 12.5379C12.7001 12.7327 12.5206 12.9758 12.4009 13.2491C12.2812 13.5224 12.2245 13.819 12.2348 14.1171C12.2355 14.2845 12.2568 14.4512 12.2981 14.6134C12.4031 15.0032 12.5645 15.3756 12.7772 15.7189C12.9307 15.9818 13.0981 16.2363 13.2789 16.4814C13.8662 17.2864 14.6045 17.9698 15.4528 18.4938C15.8784 18.7601 16.3334 18.9766 16.8086 19.139C17.3023 19.3624 17.8474 19.4482 18.3859 19.3872C18.6928 19.3408 18.9835 19.2198 19.2326 19.035C19.4816 18.8501 19.6813 18.6069 19.8141 18.3268C19.8921 18.1577 19.9158 17.9685 19.8819 17.7854C19.8006 17.4109 19.2989 17.1898 18.9916 17.0093Z" fill="white"/>
</g>
<defs>
<clipPath id="clip0_5_29984">
<rect width="32" height="32" fill="white" transform="translate(0 0.582031)"/>
</clipPath>
</defs>
</svg>
