<svg width="31" height="32" viewBox="0 0 31 32" fill="none" xmlns="http://www.w3.org/2000/svg">
<rect x="0.452393" y="0.70166" width="30.4121" height="30.4121" rx="15.2061" fill="#FF0000"/>
<path d="M24.117 11.7246C23.9185 10.9781 23.3311 10.3892 22.5837 10.1874C21.2325 9.8252 15.8108 9.8252 15.8108 9.8252C15.8108 9.8252 10.3919 9.8252 9.03791 10.1874C8.29333 10.3864 7.70594 10.9753 7.50463 11.7246C7.14337 13.0793 7.14337 15.9076 7.14337 15.9076C7.14337 15.9076 7.14337 18.7359 7.50463 20.0907C7.70318 20.8371 8.29057 21.426 9.03791 21.6279C10.3919 21.99 15.8108 21.99 15.8108 21.99C15.8108 21.99 21.2325 21.99 22.5837 21.6279C23.3283 21.4288 23.9157 20.8399 24.117 20.0907C24.4783 18.7359 24.4783 15.9076 24.4783 15.9076C24.4783 15.9076 24.4783 13.0793 24.117 11.7246Z" fill="white"/>
<path d="M14.079 18.5148L18.5823 15.9076L14.079 13.3005V18.5148Z" fill="#FF0000"/>
</svg>
